<svg xmlns="http://www.w3.org/2000/svg" viewBox="0 0 1080 1080"><g style="isolation:isolate"><g id="Layer_1" data-name="Layer 1"><rect x="-1.27" width="1081.27" height="1080" fill="#1a2980"/><path d="M72.05-5.93V1082.92H906c24.82-30.64,38.6-69.12,30.57-107.2-11.67-55.4-62.69-91.7-103.6-130.84S757,744,785.45,695.07c23.18-39.93,77.62-50.45,106.69-86.32,30.64-37.82,25-94.17,4.77-138.46s-52.53-82.08-73.82-125.85-29.87-99.15-2.16-139.17c23.87-34.46,67.52-48.14,108.1-58.66,69.75-18.06,140.84-33.67,205.78-64.87,43.6-20.95,85.07-49.9,115.83-87.67Z" fill="#7a89ff" opacity="0.17"/><path d="M-.25-3.77V1085.08H833.66c24.82-30.64,38.59-69.12,30.57-107.2-11.67-55.4-62.69-91.7-103.6-130.84s-75.9-100.85-47.48-149.81c23.18-39.93,77.62-50.45,106.69-86.32,30.64-37.82,24.95-94.18,4.77-138.47s-52.53-82.07-73.82-125.84-29.87-99.16-2.16-139.17c23.87-34.47,67.52-48.15,108.1-58.66,69.75-18.06,140.84-33.67,205.78-64.87,43.59-21,85.07-49.9,115.83-87.67Z" fill="#7a89ff"/><path d="M821.43,335.53c-1-1.94-1.87-3.93-2.71-5.94s-1.8-4-2.64-6a130.51,130.51,0,0,1-4.42-12.3,136.86,136.86,0,0,1-5.18-25.39,150,150,0,0,1-.56-26.29A135.32,135.32,0,0,1,810.19,234c1.13-4.21,2.47-8.37,4-12.46.74-2,1.55-4.09,2.37-6s1.83-4,2.61-6c.19-.51.39-1,.59-1.52a10.56,10.56,0,0,0,.38-1.57,1.07,1.07,0,0,0-1.78-1,21.09,21.09,0,0,0-3.61,5.59c-1,2.09-2,4.21-2.85,6.35a119.13,119.13,0,0,0-4.42,12.56,140.83,140.83,0,0,0-5,26.3,133.88,133.88,0,0,0,0,26.63A141.15,141.15,0,0,0,807.73,309a132.7,132.7,0,0,0,4.52,12.53,81.12,81.12,0,0,0,6,12c.58.93,1.13,1.89,1.7,2.83A.85.85,0,0,0,821.43,335.53Z" fill="#c0c9ff"/><path d="M843.47,179.65a7.25,7.25,0,0,0-3.26,1.32,22.68,22.68,0,0,0-3.07,2.08,54,54,0,0,0-5.21,4.82,55,55,0,0,0-4.63,5.58,26.54,26.54,0,0,0-1.8,3.05c-.55,1-1.17,2.05-1.72,3.1a1,1,0,0,0,1.75,1,28,28,0,0,1,2-2.87c.69-.85,1.45-1.65,2.12-2.51a65.32,65.32,0,0,1,4.52-5.17,60.07,60.07,0,0,1,5.07-4.64c.85-.7,1.7-1.42,2.51-2.16a9.2,9.2,0,0,0,2.42-2.48A.77.77,0,0,0,843.47,179.65Z" fill="#c0c9ff"/><path d="M865.41,164.65a7.83,7.83,0,0,0-3.29,1.38c-1,.56-1.94,1.17-2.88,1.8q-2.93,2-5.83,3.95c-1,.69-.12,2.31,1,1.67,2-1.18,4-2.35,6.07-3.54,1-.58,1.94-1.18,2.87-1.83a8,8,0,0,0,2.71-2.36A.72.72,0,0,0,865.41,164.65Z" fill="#c0c9ff"/><path d="M899.9,591.07c-1.61,2.86-3.09,5.81-4.82,8.61a74.82,74.82,0,0,1-5.55,7.79,104.93,104.93,0,0,1-14,14c-10.26,8.6-21.75,15.52-33.23,22.35-12,7.13-24,14.3-34.76,23.21S787.68,686.8,782,699.61a87.14,87.14,0,0,0-7.24,41,31.45,31.45,0,0,0,.73,5.11,1.09,1.09,0,0,0,2.13-.28c0-3.48-.32-7-.26-10.44a78.34,78.34,0,0,1,.84-10.14,87.72,87.72,0,0,1,5.56-20,84.52,84.52,0,0,1,10-17.77,95.76,95.76,0,0,1,13.73-14.8c10.3-9.14,22.12-16.38,33.9-23.45,11.6-7,23.25-13.9,33.87-22.33,10.21-8.11,19.76-17.86,25.67-29.6a31.6,31.6,0,0,0,1.94-4.66A1.63,1.63,0,0,0,899.9,591.07Z" fill="#c0c9ff"/><path d="M913.62,553.11a1.12,1.12,0,0,0-1.54,0c-1.09.88-1.08,2.45-1.25,3.73s-.33,2.32-.54,3.48c-.43,2.44-1,4.87-1.6,7.27s-1.5,4.73-2.18,7.12c-.34,1.19-.76,2.34-1.15,3.52s-.64,2.36-1.08,3.52c-.34.9,1.06,1.44,1.52.64.66-1.14,1.46-2.2,2-3.38s1.07-2.23,1.57-3.35a55.21,55.21,0,0,0,2.46-7.32c.69-2.43,1.24-4.89,1.69-7.38.22-1.22.41-2.44.58-3.67C914.33,555.84,914.65,554.33,913.62,553.11Z" fill="#c0c9ff"/><path d="M916.3,524.81c0-3.42.22-7-1-10.25a.72.72,0,0,0-1.38,0c-1.13,3.27-.8,6.84-.77,10.25,0,1.7,0,3.41.13,5.1s.34,3.48.46,5.23a1.08,1.08,0,0,0,2.15,0c.08-1.71.22-3.4.34-5.1S916.32,526.55,916.3,524.81Z" fill="#c0c9ff"/><path d="M932.89,961a82,82,0,0,0-10.06-20.14.85.85,0,0,0-1.47.86,116.27,116.27,0,0,1,12.23,37.11,103.83,103.83,0,0,1-1.68,38.4,100.55,100.55,0,0,1-3.16,10.63c-.61,1.7-1.23,3.41-1.89,5.09a20.93,20.93,0,0,0-1,2.64c-.22.9-.41,1.81-.66,2.71-.32,1.14,1.15,1.59,1.79.75.45-.6.88-1.2,1.35-1.78a12.15,12.15,0,0,0,1.38-2.4c.74-1.58,1.46-3.18,2.07-4.81a99.68,99.68,0,0,0,3-9.54,105.8,105.8,0,0,0,3.2-20A102.51,102.51,0,0,0,932.89,961Z" fill="#c0c9ff"/><path d="M944.36,977.29a52.19,52.19,0,0,0-1.21-6.81,30.12,30.12,0,0,0-.9-3.12c-.42-1.1-.93-2.17-1.39-3.25a1.13,1.13,0,0,0-1.35-.76,1.11,1.11,0,0,0-.76,1.35,30.87,30.87,0,0,1,.7,3.17c.19,1.07.48,2.12.69,3.18.42,2.1.76,4.23,1,6.37a58.41,58.41,0,0,1,.26,6.48c0,1.09,0,2.17-.06,3.25s-.24,2.47.63,3.36a1.07,1.07,0,0,0,1.28.16c1.14-.72,1.16-2.18,1.3-3.4a31.84,31.84,0,0,0,.2-3.24A52.3,52.3,0,0,0,944.36,977.29Z" fill="#c0c9ff"/><path d="M840.32,665a13.4,13.4,0,0,0-3.19.49,22.71,22.71,0,0,0-3,.92c-2,.76-4,1.6-5.89,2.54a76.43,76.43,0,0,0-28.53,24.45,59.1,59.1,0,0,0-3.54,5.93c-.56,1-1.09,2.12-1.58,3.2s-.84,2.27-1.25,3.4c-.34.9,1.08,1.47,1.54.65,1-1.78,2.08-3.49,3.15-5.22s2.27-3.38,3.43-5a77.69,77.69,0,0,1,7.64-9.25,74.08,74.08,0,0,1,19.27-14.45c2-1,4-2,6.06-2.85,1.1-.45,2.18-.92,3.27-1.39a18.89,18.89,0,0,0,3.13-1.53A1,1,0,0,0,840.32,665Z" fill="#c0c9ff"/><path d="M862,649.56c-.76,0-1.55.68-2.13,1.13-2,1.6-3.94,3.34-6.08,4.82-1.23.84-2.5,1.64-3.78,2.4-.67.39-1.32.76-1.95,1.2a8.86,8.86,0,0,0-.82.67,5.87,5.87,0,0,1-.92.88.46.46,0,0,0-.09.71.42.42,0,0,0,.43.41.41.41,0,0,0,.42-.33c.21,0,.43,0,.63,0a9.24,9.24,0,0,0,.92-.11,9.06,9.06,0,0,0,2-.71,39,39,0,0,0,3.57-1.86,44.8,44.8,0,0,0,6.62-4.82,9.82,9.82,0,0,0,1.37-1.44,2.93,2.93,0,0,0,.92-1.88A1.07,1.07,0,0,0,862,649.56Z" fill="#c0c9ff"/><path d="M815.84,290.73a127.08,127.08,0,0,1-1.68-31.16c.12-1.42.26-2.84.43-4.25s.57-3.22-.07-4.59a1.2,1.2,0,0,0-1.87-.24c-.93,1-1.07,2.73-1.22,4.06s-.28,2.66-.38,4c-.2,2.62-.33,5.26-.3,7.9a111,111,0,0,0,1.3,16,76,76,0,0,0,1.94,8.83A1,1,0,0,0,815.84,290.73Z" fill="#c0c9ff"/><path d="M818.9,233a1.29,1.29,0,0,0-.94-.39,1.31,1.31,0,0,0-1.15.66,11.85,11.85,0,0,0-.65,1.81c-.13.56-.26,1.11-.4,1.66-.26,1.11-.56,2.21-.86,3.31a1,1,0,1,0,1.87.51c.41-1,.78-2,1.2-3,.22-.5.43-1,.64-1.49.14-.31.28-.62.4-.93a7.28,7.28,0,0,0,.23-.89A1.33,1.33,0,0,0,818.9,233Z" fill="#c0c9ff"/><path d="M721.63,700.37a47.3,47.3,0,0,0-4,6.45,76.15,76.15,0,0,0-3,7.15,72.5,72.5,0,0,0-3.7,14.65,79.35,79.35,0,0,0,1.46,30.58,66.29,66.29,0,0,0,2.52,8c.56,1.42,1.17,2.8,1.86,4.16.33.64.67,1.28,1,1.9a9.52,9.52,0,0,0,1.44,1.73c.78.85,2-.06,1.82-1.06a11.48,11.48,0,0,0-.38-1.76c-.24-.56-.47-1.13-.69-1.69-.45-1.17-.88-2.36-1.33-3.53-.86-2.29-1.64-4.62-2.3-7a72.79,72.79,0,0,1-2.52-14.31,76.66,76.66,0,0,1,3.38-29,68.8,68.8,0,0,1,2.83-7.48c.58-1.29,1.21-2.55,1.78-3.83s1.16-2.58,1.82-3.83A1.17,1.17,0,0,0,721.63,700.37Z" fill="#c0c9ff"/><path d="M727.18,780.4h0S727.23,780.43,727.18,780.4Z" fill="#c0c9ff"/><path d="M730.64,785.37a2.56,2.56,0,0,0-.56-1.38c-.43-.63-.87-1.23-1.34-1.83a17.48,17.48,0,0,0-1.24-1.49,1.87,1.87,0,0,0-.3-.26l-.07,0a5.3,5.3,0,0,0-.52-.42,1.91,1.91,0,0,1-.25-.13l-.06-.07c-.12-.13-.24-.27-.37-.4a.64.64,0,0,0-.84-.05.65.65,0,0,0-.17.83c.07.15.15.29.21.44s0,.08.08.39a5.27,5.27,0,0,0,.35,1.06,15.79,15.79,0,0,0,.88,1.62c.31.53.63,1,1,1.56a8.15,8.15,0,0,0,.71,1,2.09,2.09,0,0,0,1.16.59,1.25,1.25,0,0,0,1-.27h0a.8.8,0,0,0,.22-.34l0,0s0,0,0-.06h0l0-.09A2.07,2.07,0,0,0,730.64,785.37Z" fill="#c0c9ff"/><path d="M725,759.45a30.9,30.9,0,0,1-1.25-4,55.32,55.32,0,0,1-1.08-8.16c0-.56-.9-.71-1-.13a23.27,23.27,0,0,0-.59,4.32,23.79,23.79,0,0,0,.5,4.45,24.17,24.17,0,0,0,1.25,4.15,8.52,8.52,0,0,0,2.39,3.75.72.72,0,0,0,1.08-.62A16,16,0,0,0,725,759.45Z" fill="#c0c9ff"/><path d="M883.35,988.57A138.37,138.37,0,0,0,874.11,953c-1.31-3.21-2.7-6.42-4.28-9.5a100.08,100.08,0,0,0-5.33-8.75,1,1,0,0,0-1.71,1c1.4,2.7,2.64,5.47,3.88,8.24s2.46,5.32,3.57,8a136.5,136.5,0,0,1,5.68,17.1,138,138,0,0,1,4.42,35.21c0,3.34-.09,6.67-.25,10-.09,1.7-.2,3.4-.35,5.1a25.35,25.35,0,0,0-.24,5.07,1.39,1.39,0,0,0,1,1.28,1.33,1.33,0,0,0,1.5-.61,9.71,9.71,0,0,0,.73-2.31q.21-1.14.39-2.28c.25-1.57.44-3.16.61-4.75.34-3,.58-6.11.63-9.18A133.78,133.78,0,0,0,883.35,988.57Z" fill="#c0c9ff"/><path d="M881.1,1036a1.36,1.36,0,0,0-1.33-1.32,1.34,1.34,0,0,0-1.33,1.32,14.84,14.84,0,0,1-.05,2.11.7.7,0,0,1,0,.13l0,.2c0,.19-.06.37-.1.56s-.16.68-.26,1c-.2.67-.37,1.35-.63,2-.08.21-.21.45-.36.78a4,4,0,0,0-.3,1.22.9.9,0,0,0,1.3,1,3.31,3.31,0,0,0,1.08-.85,9.55,9.55,0,0,0,.62-1,11.1,11.1,0,0,0,1-2.32A13.6,13.6,0,0,0,881.1,1036Z" fill="#c0c9ff"/><path d="M890.72,980.33a45.74,45.74,0,0,0-.79-7c-.47-2.29-1-4.56-1.57-6.83-.14-.58-1-.32-.87.24a60.1,60.1,0,0,1,.59,6.84c.07,2.29.26,4.59.34,6.88s.08,4.52,0,6.78c0,1.13-.13,2.26-.19,3.39a6.7,6.7,0,0,0,.29,3.39.81.81,0,0,0,1.26.16,6.24,6.24,0,0,0,.9-3.42c.11-1.13.13-2.26.15-3.39C890.88,985,890.85,982.68,890.72,980.33Z" fill="#c0c9ff"/><path d="M668.67,239.64c-7.55,32.23-1.81,65.85,1.73,98.77s4.4,68-11.54,97c-20.3,37-66.5,56.07-108,48.71S474,445.7,456.74,407.21s-17.49-83.29-5.66-123.77c26.29-90,115.08-157.81,208.81-159.51,18-.33,36.5,1.69,52.36,10.14,7.56,4,25.24,16.17,25,26.36-.29,12-12.39,13.33-21.27,18.31C691.76,192.29,675.13,212.07,668.67,239.64Z" fill="#9ca4ff"/><path d="M300,552.3a118.06,118.06,0,0,1-80.44,44c-23.51,2.27-48-2.54-70.42,4.76-37.68,12.23-57.71,56.52-53.45,95.9,2.28,21,10.84,42.31,27.61,55.18,18.49,14.18,43.59,15.94,66.83,14.23,67.36-5,133.92-36.45,174.46-90.48s51.51-131,20.92-191.16c-6.39-12.58-15.3-25-28.55-29.88-24.43-8.93-31.31,8.89-32.06,27.51C323.93,507.67,315.83,532.24,300,552.3Z" fill="#9ca4ff"/><rect x="341.14" y="259.28" width="410.06" height="715.95" rx="45.01" fill="#263ea8"/><path d="M706.2,976H386.15a45.87,45.87,0,0,1-45.82-45.82V304.29a45.87,45.87,0,0,1,45.82-45.82H706.2A45.86,45.86,0,0,1,752,304.29V930.22A45.87,45.87,0,0,1,706.2,976ZM386.15,260.09a44.25,44.25,0,0,0-44.2,44.2V930.22a44.25,44.25,0,0,0,44.2,44.2H706.2a44.25,44.25,0,0,0,44.2-44.2V304.29a44.25,44.25,0,0,0-44.2-44.2Z" fill="#fff"/><rect x="372.12" y="296.22" width="347.48" height="642.08" rx="27.73" fill="#fffdff"/><rect x="486.55" y="274.26" width="119.24" height="44.78" rx="18.7" fill="#263ea8"/><rect x="393.7" y="345" width="304.31" height="103.6" rx="12.37" fill="#95d7ff"/><path d="M526.63,371c0,7.46-4.48,13.88-13.18,13.88-8.41,0-12.82-6.11-12.82-13.79s4.87-13.79,13.19-13.79C521.66,357.3,526.63,362.79,526.63,371Zm-20,0c0,5.23,2.3,9.19,7,9.19,5.15,0,7-4.31,7-9.09,0-5.07-2.08-9.06-7.08-9.06C508.73,362,506.62,365.75,506.62,371ZM521,380.38l7.62,5.23-3.35,3.85-9.45-6.55Z" fill="#fff"/><path d="M537.23,357.69v16c0,5.14,2.64,6.66,5.53,6.66,3.32,0,5.4-1.8,5.4-6.66v-16H554v15.68c0,9.16-5.36,11.5-11.27,11.5s-11.27-2.44-11.27-11.39V357.69Z" fill="#fff"/><path d="M565.89,357.69v26.8h-5.8v-26.8Z" fill="#fff"/><path d="M570.09,380.24l14.71-17.8h-14v-4.75h20.64v4.7l-14.21,17.35h15l-.72,4.75H570.09Z" fill="#fff"/><path d="M451.71,415.8c0,8-4.45,16.61-14.42,16.61-6.74,0-10.29-4.58-10.29-10.88,0-8,4.77-16.91,14.29-16.91C448.16,404.62,451.71,409.13,451.71,415.8Zm-20.78,5.6c0,4.5,2.15,7.87,6.86,7.87,6.86,0,10-7.14,10-13.54,0-4.74-2.19-8-6.77-8C434.2,407.76,430.93,415.2,430.93,421.4Zm13.82,7.72,6.85,5.25-2.33,2.57-8-6.09Z" fill="#fff"/><path d="M470.44,426.72c-.39,1.77-.76,3.71-1,5.3h-3.54a31.12,31.12,0,0,1,.54-3.28,7.4,7.4,0,0,1-6.58,3.67c-3.62,0-5.91-2.16-4.83-7.23l2.79-13h3.58l-2.68,12.57c-.53,2.44-.38,4.54,2.64,4.54s5.38-2.19,6.51-7.53l2.05-9.58h3.62Z" fill="#fff"/><path d="M479.41,422.74a11.26,11.26,0,0,0-.16,1.75c0,3.09,1.43,5,4.13,5a5.09,5.09,0,0,0,4.84-3.1H492a9,9,0,0,1-9,6.06c-5,0-7.4-3.3-7.4-7.92,0-5.5,3-12.66,10.43-12.66,5.41,0,7.23,3.49,7.23,7.18a13.21,13.21,0,0,1-.51,3.73Zm10.24-2.65a6.38,6.38,0,0,0,.12-1.33c0-2.51-1.17-4.05-3.92-4.05s-4.93,2-5.87,5.38Z" fill="#fff"/><path d="M498.75,426c.21,2,1.44,3.51,4.4,3.51,2.54,0,3.81-1.24,3.81-3s-1.25-2.55-4-3.53c-4.33-1.48-5.66-3-5.66-5.32,0-3.17,2.44-5.85,7.31-5.85,5.21,0,7.23,2.86,7.14,5.77h-3.67c-.12-1.33-.75-2.94-3.76-2.94-1.92,0-3.37.9-3.37,2.6,0,1.33,1.11,1.94,3.84,2.91,4.25,1.48,5.93,3.17,5.93,5.93,0,4.06-3.36,6.31-8.08,6.31-5.08,0-7.62-2.59-7.56-6.37Z" fill="#fff"/><path d="M514.82,412.22H518l1.21-5.64h3.59l-1.19,5.64h4.12l-.66,2.92H521l-2.43,11.58c-.36,1.7-.26,2.56,1.42,2.56a10.3,10.3,0,0,0,1.9-.16l-.62,2.79a9.2,9.2,0,0,1-2.9.34c-3.31,0-4.23-1.67-3.53-5l2.54-12.12h-3.21Z" fill="#fff"/><path d="M529.53,412.22h3.61L529,432h-3.61Zm1.84-8.72H535l-.92,4.39h-3.61Z" fill="#fff"/><path d="M553.51,420.07c0,5.12-2.91,12.34-10.66,12.34-4.93,0-7.56-3.1-7.56-8,0-5.45,3.36-12.56,10.58-12.56C550.43,411.83,553.51,414.71,553.51,420.07ZM539,424.39c0,3.19,1.49,5.05,4.21,5.05,4.55,0,6.53-5.56,6.53-9.56,0-3.2-1.37-5.08-4.22-5.08C541.15,414.8,539,420.34,539,424.39Z" fill="#fff"/><path d="M558.83,417.25c.35-1.71.7-3.38,1-5h3.54c-.06.61-.42,2.68-.56,3.21a7.3,7.3,0,0,1,6.52-3.6c3.79,0,6.13,2.22,4.91,7.89L571.65,432h-3.6l2.57-12.23c.61-2.84,0-4.81-2.89-4.81-3.45,0-5.46,3.1-6.3,7.07l-2.11,10h-3.61Z" fill="#fff"/><path d="M587.51,432l5.72-27h4.9c2.24,6.24,7.26,19.66,8,22.65h.06c.43-3.25,1.53-8,2.46-12.42L610.77,405h3.61l-5.72,27H604c-2.07-5.79-7.29-20.35-8.06-23.32h-.05c-.53,3.47-1.52,8-2.55,12.84L591.14,432Z" fill="#fff"/><path d="M633.81,420.07c0,5.12-2.91,12.34-10.67,12.34-4.92,0-7.55-3.1-7.55-8,0-5.45,3.36-12.56,10.58-12.56C630.73,411.83,633.81,414.71,633.81,420.07Zm-14.48,4.32c0,3.19,1.49,5.05,4.21,5.05,4.55,0,6.53-5.56,6.53-9.56,0-3.2-1.38-5.08-4.22-5.08C621.45,414.8,619.33,420.34,619.33,424.39Z" fill="#fff"/><path d="M647.08,421.48h17.41l-.45,3.07h-17.4Zm9.24-15.67H659L649.78,432h-2.73Zm-6.6,6.83H667l-.45,3.05H649.29Zm14.07-6.83h2.63L657.25,432h-2.74Z" fill="#fff"/><path d="M480.36,482c0-2.73,0-5.45.05-8.18,0-1.6,0-3.21,0-4.81H416.36a6.49,6.49,0,0,0-6.47,6.47v2.16a6.5,6.5,0,0,0,6.47,6.48h64Z" fill="#ffcb4c"/><path d="M675.35,469.05H483.9c0,1.66,0,3.32,0,5,0,2.72,0,5.45.05,8.18v2H675.35a6.5,6.5,0,0,0,6.47-6.48v-2.16A6.49,6.49,0,0,0,675.35,469.05Z" fill="#ffbe80"/><circle cx="479.22" cy="476.33" r="10.52" fill="#9e9e9e" opacity="0.43" style="mix-blend-mode:multiply"/><circle cx="481.38" cy="476.33" r="10.52" fill="#ffcb4c"/><path d="M488.12,476.06a7,7,0,1,1-7-7A7,7,0,0,1,488.12,476.06Z" fill="#ff8730"/><path d="M486.58,474.35a1.52,1.52,0,0,0-.19-.83,4.52,4.52,0,0,0-.67-1.06,4.34,4.34,0,0,0-.89-.82,4.53,4.53,0,0,0-.48-.27.94.94,0,0,0-.73-.07h-.07a.34.34,0,0,0-.34.26.36.36,0,0,0,.12.37,1.11,1.11,0,0,0,.4.46c.06,0,.07.05,0,0l.19.16.05,0,.06.05a3.33,3.33,0,0,1,.39.36l.16.17.13.16s0,0,0,0h0l.08.12.14.21a4.73,4.73,0,0,1,.23.45h0a2.56,2.56,0,0,0,.11.24,1.08,1.08,0,0,0,.18.29v0a1.24,1.24,0,0,0,.14.18l.09.07.15.1a.38.38,0,0,0,.45-.06,1.07,1.07,0,0,0,.15-.22.89.89,0,0,0,.08-.32.28.28,0,0,0,0-.09Z" fill="#fffdff"/><path d="M484.75,473.35l0,0,0,0h0Z" fill="#fffdff"/><path d="M486.53,476.38a1,1,0,0,0-.11-.28.41.41,0,0,0-.16-.16.47.47,0,0,0-.46,0,.49.49,0,0,0-.16.16,1.36,1.36,0,0,0-.11.28.53.53,0,0,0,0,.28v.12a.64.64,0,0,0,.06.16.42.42,0,0,0,.18.17.4.4,0,0,0,.24.07.45.45,0,0,0,.25-.07.46.46,0,0,0,.17-.17.52.52,0,0,0,.06-.16v-.11A.48.48,0,0,0,486.53,476.38Z" fill="#fffdff"/><path d="M822,976.48c-20.81-1.18-41.68-.77-62.52-.77H323.13q-35.08,0-70.17,0c-23.39,0-46.8-.26-70.18.45a1.15,1.15,0,0,0,0,2.29c41.63,1.26,83.39.49,125,.49h444c23.38,0,46.82.55,70.17-.77A.89.89,0,0,0,822,976.48Z" fill="#fffdff"/><path d="M771.29,990.51c-34-.27-67.9-.88-101.86-.94s-67.91.07-101.87,0c-19.16,0-38.31-.09-57.46.37a.61.61,0,0,0,0,1.21c33.94.83,67.92.33,101.87.36s67.91.22,101.86-.15c9.58-.11,19.15-.39,28.73-.53s19.16-.13,28.73-.21A.08.08,0,1,0,771.29,990.51Z" fill="#fffdff"/><path d="M814.27,962.5c-4.94-.21-9.88-.42-14.83-.45s-10-.08-15-.09l-29.67,0-8.35,0a63.82,63.82,0,0,0-8.42.38.73.73,0,0,0,0,1.41,56.13,56.13,0,0,0,7.34.37l7.41,0,15,0c9.89,0,19.77,0,29.66-.08,5.63,0,11.23-.23,16.85-.47A.54.54,0,0,0,814.27,962.5Z" fill="#fffdff"/><circle cx="545.35" cy="956.1" r="11.84" fill="#fff" stroke="#eee" stroke-miterlimit="10"/><rect x="554.87" y="710.83" width="116.01" height="116.01" rx="27.27" fill="#ffc9c1"/><rect x="561.89" y="717.85" width="101.44" height="101.44" rx="27.27" fill="#ffaa9e"/><path d="M647.14,799.05H578.61a2.7,2.7,0,0,1-2.69-2.7h0a2.7,2.7,0,0,1,2.69-2.69h68.53a2.7,2.7,0,0,1,2.69,2.69h0A2.7,2.7,0,0,1,647.14,799.05Z" fill="#fbffff" opacity="0.59"/><path d="M646.6,789.07H578.07a2.7,2.7,0,0,1-2.69-2.7h0a2.71,2.71,0,0,1,2.69-2.7H646.6a2.71,2.71,0,0,1,2.69,2.7h0A2.7,2.7,0,0,1,646.6,789.07Z" fill="#fbffff" opacity="0.59"/><path d="M647.14,809H578.61a2.7,2.7,0,0,1-2.69-2.69h0a2.7,2.7,0,0,1,2.69-2.7h68.53a2.7,2.7,0,0,1,2.69,2.7h0A2.7,2.7,0,0,1,647.14,809Z" fill="#fbffff" opacity="0.59"/><path d="M651.45,742.4a12.14,12.14,0,1,1-12.14-12.14A12.14,12.14,0,0,1,651.45,742.4Z" fill="#fff" opacity="0.71"/><path d="M650.29,751.19c-2.66-2.89-5.59-5.57-8.38-8.34l-.57-.55q2-1.89,3.95-3.79l2.62-2.5a12.2,12.2,0,0,0,2.65-2.82,1.49,1.49,0,0,0-2-2,12.18,12.18,0,0,0-2.92,2.55l-2.5,2.42-4,3.91-1.38-1.35c-.67-.67-1.33-1.33-2-2s-1.68-1.25-2.51-1.89-2.25.67-1.57,1.57,1.14,1.65,1.79,2.42,1.34,1.45,2,2.15l1.32,1.35-4.07,4c-.86.85-1.71,1.71-2.54,2.59a7.26,7.26,0,0,0-2.1,3,.82.82,0,0,0,1,1,7.27,7.27,0,0,0,3.1-2c.88-.76,1.74-1.54,2.59-2.34l4.23-4c.2.21.4.42.61.62,2.74,2.82,5.4,5.76,8.27,8.45A1.76,1.76,0,0,0,650.29,751.19Z" fill="#ff2900"/><rect x="405.81" y="710.83" width="116.01" height="116.01" rx="27.27" fill="#ffc9c1"/><rect x="412.82" y="717.85" width="101.44" height="101.44" rx="27.27" fill="#ffaa9e"/><path d="M498.07,799.05H429.55a2.71,2.71,0,0,1-2.7-2.7h0a2.71,2.71,0,0,1,2.7-2.69h68.52a2.7,2.7,0,0,1,2.7,2.69h0A2.7,2.7,0,0,1,498.07,799.05Z" fill="#fbffff" opacity="0.59"/><path d="M497.54,789.07H429a2.71,2.71,0,0,1-2.7-2.7h0a2.71,2.71,0,0,1,2.7-2.7h68.53a2.71,2.71,0,0,1,2.69,2.7h0A2.7,2.7,0,0,1,497.54,789.07Z" fill="#fbffff" opacity="0.59"/><path d="M498.07,809H429.55a2.71,2.71,0,0,1-2.7-2.69h0a2.71,2.71,0,0,1,2.7-2.7h68.52a2.7,2.7,0,0,1,2.7,2.7h0A2.7,2.7,0,0,1,498.07,809Z" fill="#fbffff" opacity="0.59"/><path d="M502.39,742.4a12.14,12.14,0,1,1-12.14-12.14A12.14,12.14,0,0,1,502.39,742.4Z" fill="#fff" opacity="0.71"/><path d="M501.23,751.19c-2.67-2.89-5.59-5.57-8.39-8.34l-.56-.55q2-1.89,4-3.79l2.62-2.5a12.16,12.16,0,0,0,2.64-2.82,1.49,1.49,0,0,0-2-2,12.18,12.18,0,0,0-2.92,2.55l-2.51,2.42q-2,2-4,3.91l-1.37-1.35c-.67-.67-1.33-1.33-2-2s-1.68-1.25-2.51-1.89-2.25.67-1.57,1.57,1.14,1.65,1.79,2.42,1.33,1.45,2,2.15l1.32,1.35-4.07,4c-.86.85-1.71,1.71-2.54,2.59a7.26,7.26,0,0,0-2.1,3,.81.81,0,0,0,1,1,7.24,7.24,0,0,0,3.11-2c.88-.76,1.73-1.54,2.59-2.34l4.23-4,.6.62c2.75,2.82,5.41,5.76,8.28,8.45A1.76,1.76,0,0,0,501.23,751.19Z" fill="#ff2900"/><rect x="405.81" y="554.81" width="116.01" height="116.01" rx="27.27" fill="#ffc9c1"/><rect x="412.82" y="561.83" width="101.44" height="101.44" rx="27.27" fill="#ffaa9e"/><path d="M498.07,643H429.55a2.71,2.71,0,0,1-2.7-2.7h0a2.71,2.71,0,0,1,2.7-2.69h68.52a2.7,2.7,0,0,1,2.7,2.69h0A2.7,2.7,0,0,1,498.07,643Z" fill="#fbffff" opacity="0.59"/><path d="M497.54,633.05H429a2.71,2.71,0,0,1-2.7-2.7h0a2.71,2.71,0,0,1,2.7-2.7h68.53a2.71,2.71,0,0,1,2.69,2.7h0A2.7,2.7,0,0,1,497.54,633.05Z" fill="#fbffff" opacity="0.59"/><path d="M498.07,653H429.55a2.71,2.71,0,0,1-2.7-2.69h0a2.71,2.71,0,0,1,2.7-2.7h68.52a2.7,2.7,0,0,1,2.7,2.7h0A2.7,2.7,0,0,1,498.07,653Z" fill="#fbffff" opacity="0.59"/><path d="M502.39,586.38a12.14,12.14,0,1,1-12.14-12.14A12.14,12.14,0,0,1,502.39,586.38Z" fill="#fff" opacity="0.71"/><path d="M501.23,595.17c-2.67-2.89-5.59-5.57-8.39-8.34l-.56-.55q2-1.89,4-3.79l2.62-2.5a12.16,12.16,0,0,0,2.64-2.82,1.49,1.49,0,0,0-2-2,12.18,12.18,0,0,0-2.92,2.55l-2.51,2.42q-2,2-4,3.91l-1.37-1.35c-.67-.67-1.33-1.33-2-1.95s-1.68-1.25-2.51-1.89-2.25.67-1.57,1.57,1.14,1.65,1.79,2.42,1.33,1.45,2,2.15l1.32,1.35-4.07,4c-.86.85-1.71,1.71-2.54,2.59a7.26,7.26,0,0,0-2.1,3,.81.81,0,0,0,1,1,7.33,7.33,0,0,0,3.11-2c.88-.76,1.73-1.54,2.59-2.34l4.23-4,.6.62c2.75,2.82,5.41,5.76,8.28,8.45A1.76,1.76,0,0,0,501.23,595.17Z" fill="#ff2900"/><rect x="554.87" y="554.81" width="116.01" height="116.01" rx="38.13" fill="#cbeffc"/><rect x="564.57" y="557.8" width="101.44" height="101.44" rx="27.27" fill="#96ebff"/><path d="M647.14,643H578.61a2.7,2.7,0,0,1-2.69-2.7h0a2.7,2.7,0,0,1,2.69-2.69h68.53a2.7,2.7,0,0,1,2.69,2.69h0A2.7,2.7,0,0,1,647.14,643Z" fill="#fbffff" opacity="0.59"/><path d="M646.6,633.05H578.07a2.7,2.7,0,0,1-2.69-2.7h0a2.71,2.71,0,0,1,2.69-2.7H646.6a2.71,2.71,0,0,1,2.69,2.7h0A2.7,2.7,0,0,1,646.6,633.05Z" fill="#fbffff" opacity="0.59"/><path d="M647.14,653H578.61a2.7,2.7,0,0,1-2.69-2.69h0a2.7,2.7,0,0,1,2.69-2.7h68.53a2.7,2.7,0,0,1,2.69,2.7h0A2.7,2.7,0,0,1,647.14,653Z" fill="#fbffff" opacity="0.59"/><path d="M651.45,586.38a12.14,12.14,0,1,1-12.14-12.14A12.14,12.14,0,0,1,651.45,586.38Z" fill="#fff" opacity="0.71"/><path d="M684.72,546.2c.39-1.65-1.31-3.61-3.09-2.42a254.64,254.64,0,0,0-41.53,34.39c-4-4.11-8-8.2-12.34-11.91-.26-.39-.52-.78-.8-1.16a1.63,1.63,0,0,0-2.69.09,1.24,1.24,0,0,0-.27,1.88c.26.35.54.69.81,1a121.58,121.58,0,0,0,5.1,11.36q3.2,6.72,6.46,13.41a2.43,2.43,0,0,0,3.8.49q10.17-12,21.2-23.28,5.45-5.54,11.1-10.85c3.87-3.64,8-7,11.72-10.86A2.26,2.26,0,0,0,684.72,546.2Z" fill="#5ec43a"/><path d="M235.66,597.84c-.3-.89-19.67-9.27-24.15-9-3.74.25-12.71,2.36-14.66,4.62.07.15.13.3.19.44.21.47.44.93.68,1.39.47.93,1,1.85,1.47,2.75,1,1.71,1.94,3.41,3,5.08a38,38,0,0,0,3.36,4.78,17.53,17.53,0,0,0,3.85,3.21c.75.48,1.52.92,2.31,1.34l.35.2c7.94.85,24.66-.91,26.9-2.89Z" fill="#ffcbc7"/><path d="M280.1,587.68c-.6-.3-45.93,6.86-45.64,8.05s1.79,15.51,4.18,15.81S278.91,616,278.91,616" fill="#ffb642"/><path d="M263.4,659c-1.49.89-64.43,120.5-53.69,145S292,920.26,298.89,917.28s15.22-8,17-15.21-63.84-113.65-60.26-114,65.62-108,65.62-108" fill="#3144be"/><path d="M277.42,901.17s20,20.29,20.88,20,0,1.19,0,2.38S253.26,948,267,951.88s78.07-7.28,79.6-18-40.83-77.2-40.83-77.2" fill="#190700"/><path d="M272.35,701.92s6.86,127.67,12.52,134.53,34.6,95.75,43.55,99,17.3,4.47,18.5,0S330.81,826,322.16,809.9c0,0,23.27-116.33,23.27-128.86s-11.94-35.79-11.94-35.79S254.45,657.48,272.35,701.92Z" fill="#3144be"/><path d="M258.62,659.26c-1.49.9-4.77,15.52-1.49,15.81s83.52-4.47,83.82-11.93-7.46-13.72-7.46-13.72" fill="#ffb642"/><path d="M342.14,620.49s-5.36,17.3-3.57,29.53c1,7-22.59,11.15-44.51,13.1-4.83.43-9.57.75-13.95,1-10.57.54-19.05.49-21.49-.05-8.05-1.79,21.48-101.12,31-124.39,4.91-12,15.28-25.62,24.19-36,8.39-9.81,15.48-16.76,15.48-16.76l2.83,3.47c7.75-7.39,13.67-9.79,20.86-4,5.76,4.68,12.34,14.64,21.33,31.57.3.57.61,1.14.91,1.73C396.13,559.34,342.14,620.49,342.14,620.49Z" fill="#ffd477"/><path d="M352.29,495.51c-2.39,9.84-28.34,23.26-36.69,23.86-4.6.33-3.59-8.1-1.76-15.75,8.39-9.81,15.48-16.76,15.48-16.76l2.83,3.47c7.75-7.39,13.67-9.79,20.86-4A32.61,32.61,0,0,1,352.29,495.51Z" fill="#ffb642"/><path d="M329.2,425.72s3.57-6.85,11.24-1.92,10.14,41.92,3,46.86" fill="#181f3e"/><path d="M348.06,491.93c-.78,9.07-28,21-29,22.3-.75.93-.42-7.59-.18-14.84.1-2.79.18-5.4.18-7.2,0-6.49-6-8.82-6-8.82L340.8,457.7s2.51,7.87,4.59,16.4C347,480.81,348.4,487.93,348.06,491.93Z" fill="#ffcbc7"/><path d="M345.39,474.1c-3.39,9.7-17.29,20.24-26.55,25.29.1-2.79.18-5.4.18-7.2,0-6.49-6-8.82-6-8.82L340.8,457.7S343.31,465.57,345.39,474.1Z" fill="#ff9292"/><path d="M344.83,447.92a4.13,4.13,0,0,0-4-1.54c-4.87-12.77-17.26-27.86-42-9.12,0,0,0,.4,0,1.14-.17,7.31-.38,47.38,15.37,48.5,17.34,1.22,28.35-21.93,29.17-28.32a9.31,9.31,0,0,0,0-2.05C346,454.71,346.87,450.47,344.83,447.92Z" fill="#ffcbc7"/><path d="M337.52,428.53a26.92,26.92,0,0,0-5.88-6.28,10.93,10.93,0,0,0,.53-2.33,10,10,0,0,0,0-1.73,4,4,0,0,0-.4-1.72c-.13-.23-.58-.22-.63.08a8.34,8.34,0,0,0,0,1.58,13.25,13.25,0,0,1-.05,1.67,11.35,11.35,0,0,1-.31,1.82l0,0a9.68,9.68,0,0,0-.62-2.16,10,10,0,0,0-1.14-2.11,8.34,8.34,0,0,0-.76-.93,1.8,1.8,0,0,0-1-.68c-.23,0-.35.23-.32.42.06.36.39.64.61.92s.46.58.67.89a10.71,10.71,0,0,1,1,1.91,7.77,7.77,0,0,1,.33.92c-.3-.19-.61-.37-.91-.54l-.3-.53a3.54,3.54,0,0,0-.19-.33,1.26,1.26,0,0,0-.39-.34.33.33,0,0,0-.5.28c0,.06,0,.12,0,.18a23.58,23.58,0,0,0-4-1.55c-7.14-2.08-14.87-.78-21.51,2.92-5.19,2.89-10,7.59-11.65,14a11.51,11.51,0,0,0-.28,5.15,5.39,5.39,0,0,0,2.73,3.9c2.33,1,4.8-.69,7.07-1.89,4.33-2.29,9.21-2.71,14-2.67s9.54.51,14.26-.16a21.48,21.48,0,0,0,9.29-3.41C340.41,433.55,339.6,431.62,337.52,428.53Z" fill="#181f3e"/><path d="M299.05,425.73a1.59,1.59,0,0,0-1.31.52c-.33.3-.65.62-1,.95a19.83,19.83,0,0,0-1.74,2.14,17.84,17.84,0,0,0-1.38,2.31c-.2.4-.38.82-.55,1.24a3.52,3.52,0,0,0-.35,1.38.55.55,0,0,0,.93.38,4.62,4.62,0,0,0,.63-1.13c.17-.4.36-.78.56-1.16a19,19,0,0,1,1.33-2.21,21,21,0,0,1,1.59-1.94q.42-.45.87-.87c.31-.28.75-.71.72-1.17A.47.47,0,0,0,299.05,425.73Z" fill="#b3c4ff" opacity="0.32"/><path d="M303,423.33a.5.5,0,0,0-.15-.32.72.72,0,0,0-.24-.14.62.62,0,0,0-.42.06,1.42,1.42,0,0,0-.29.21l-.18.16-.38.31-.74.63a.57.57,0,0,0-.16.38.55.55,0,0,0,.16.38.51.51,0,0,0,.37.15l.15,0a.48.48,0,0,0,.23-.13l.77-.61.39-.3a2.4,2.4,0,0,0,.43-.41l0-.14A.38.38,0,0,0,303,423.33Z" fill="#b3c4ff" opacity="0.32"/><path d="M324.79,459.1a2.89,2.89,0,0,1,2.4,1,1.84,1.84,0,0,1-.5,2.28,3.26,3.26,0,0,1-2.4.6,15.26,15.26,0,0,1-2.47-.58,16.66,16.66,0,0,0-10.37.66,7.09,7.09,0,0,1-1.77.59,2,2,0,0,1-1.72-.49c-2.2-2.36,5.47-3.32,6.56-3.51A44.75,44.75,0,0,1,324.79,459.1Z" fill="#ff9292" opacity="0.53"/><path d="M316.16,466.2a4.76,4.76,0,0,1-1.65.37,1.13,1.13,0,0,1-1-.69.75.75,0,0,1,0-.51,1.14,1.14,0,0,1,.44-.46,1.63,1.63,0,0,0,.69-1.17,6.89,6.89,0,0,0-.07-1.57l-.18-1.87c-.12-1.25-.25-2.49-.37-3.74s-.23-2.81-.45-4.21a.13.13,0,0,0-.26,0c0,1.31.2,2.63.32,3.94l.36,3.94.18,2a5.57,5.57,0,0,1,0,1.63,1.14,1.14,0,0,1-.34.59,4,4,0,0,0-.59.5,1.1,1.1,0,0,0-.08,1.17c.55,1.2,2.16,1,3.12.44A.2.2,0,0,0,316.16,466.2Z" fill="#fa7f7f"/><path d="M324.49,471.16a4.44,4.44,0,0,0-1.07.58c-.35.2-.71.39-1.08.56a14.67,14.67,0,0,1-2.29.85,15.55,15.55,0,0,1-4.8.56,18.27,18.27,0,0,1-2.75-.33.14.14,0,0,0-.07.28,14.7,14.7,0,0,0,9.86-.83c.42-.19.84-.39,1.24-.61a3.4,3.4,0,0,0,1.15-.82C324.77,471.28,324.62,471.12,324.49,471.16Z" fill="#fa7f7f"/><path d="M317.42,475.12c-.12-.05-.3.05-.42.08l-.39.08a2.68,2.68,0,0,1-.8,0c-.15,0-.19.24,0,.28a2.8,2.8,0,0,0,.87.08,3.11,3.11,0,0,0,.44-.07c.14,0,.36-.08.43-.22A.17.17,0,0,0,317.42,475.12Z" fill="#fa7f7f"/><path d="M307.48,455.71a1,1,0,0,0,0-.24.27.27,0,0,0,0-.12,1.35,1.35,0,0,0-.24-.42.91.91,0,0,0-.28-.23,1.07,1.07,0,0,0-.49-.14h-.12a1.09,1.09,0,0,0-.26.05,1.4,1.4,0,0,0-.46.26,1,1,0,0,0-.25.3,1,1,0,0,0-.11.24l0,.13a1.23,1.23,0,0,0,0,.54,1.17,1.17,0,0,0,.22.43,1.13,1.13,0,0,0,.34.31,1.24,1.24,0,0,0,.53.15,1.17,1.17,0,0,0,.85-.33,1.2,1.2,0,0,0,.29-.45l0-.11a1.37,1.37,0,0,0,0-.28v-.09Z" fill="#232323"/><path d="M325.84,453.79a1,1,0,0,0,0-.24.27.27,0,0,0,0-.12,1.35,1.35,0,0,0-.24-.42,1,1,0,0,0-.28-.23,1.2,1.2,0,0,0-.49-.14h-.12a1.09,1.09,0,0,0-.26.05,1.4,1.4,0,0,0-.46.26,1,1,0,0,0-.25.3,1.28,1.28,0,0,0-.11.24l0,.13a1.28,1.28,0,0,0,0,.55,1.21,1.21,0,0,0,.22.42,1.13,1.13,0,0,0,.34.31,1.12,1.12,0,0,0,.53.15,1.17,1.17,0,0,0,.85-.33,1.2,1.2,0,0,0,.29-.45l0-.11a1.27,1.27,0,0,0,0-.28h0Z" fill="#232323"/><path d="M308.21,449.68c-.37-.44-1.18-.25-1.66-.17A6.75,6.75,0,0,0,305,450a6.06,6.06,0,0,0-1.3.76,6.66,6.66,0,0,0-.59.49,2.44,2.44,0,0,0-.27.29c-.09.12-.14.24-.23.36s.18.61.44.43.38-.23.56-.36.38-.26.58-.38a7,7,0,0,1,1.24-.57,6.73,6.73,0,0,1,1.34-.33c.44-.06,1.09,0,1.42-.32A.48.48,0,0,0,308.21,449.68Z" fill="#181f3e"/><path d="M328.42,449.79a5,5,0,0,0-1.72-.9,9.2,9.2,0,0,0-1.86-.46,9.38,9.38,0,0,0-1.91-.11,4.05,4.05,0,0,0-2,.4c-.35.24-.39.94.13,1a8,8,0,0,0,1.76-.14,11,11,0,0,1,1.81,0,8.56,8.56,0,0,1,1.66.33c.57.17,1.12.44,1.69.59S328.78,450.11,328.42,449.79Z" fill="#181f3e"/><path d="M342.14,620.49s-5.36,17.3-3.57,29.53c1,7-22.59,11.15-44.51,13.1,7.74-1.71,16.89-5.9,22.43-15.79,11-19.68,61.45-91.57,58.76-112.15-1-7.8-1.3-13.54-.91-17.24.3.57.61,1.14.91,1.73C396.13,559.34,342.14,620.49,342.14,620.49Z" fill="#ffc067"/><path d="M212.89,576.6s-4.56,6.6-4.11,7.75,5.59,10.71,7.37,10.48,4.21-2.35,4.21-2.35,18.42.62,23.11-2.69,3.47-10.38,3.47-10.38-25.36-12.36-26.21-11.94S213.94,570.75,212.89,576.6Z" fill="#ffcbc7"/><path d="M220.13,591.3a.16.16,0,0,0-.31.08c0,.25,0,.49,0,.74a2.19,2.19,0,0,1-.55,1,6.42,6.42,0,0,1-1.64,1.09,2.86,2.86,0,0,1-1.88.45,2.35,2.35,0,0,1-1.27-1.1,7.14,7.14,0,0,1-1-1.76,2.85,2.85,0,0,1,.07-1.93,12,12,0,0,1,.93-1.86c.36-.63.73-1.26,1.11-1.88s.86-1.36,1.31-2,.94-1.34,1.34-2.06c.08-.16-.15-.26-.25-.15a14,14,0,0,0-1.43,1.91c-.45.66-.89,1.34-1.31,2s-.82,1.35-1.21,2a12,12,0,0,0-1,2,4,4,0,0,0-.18.95,8.78,8.78,0,0,1-1.46-1.81,3.11,3.11,0,0,1-.2-2.63,14.88,14.88,0,0,1,1.41-2.64c.56-.92,1.14-1.84,1.74-2.75s1.38-2,2-3a.15.15,0,0,0-.23-.18,25.57,25.57,0,0,0-2,2.73c-.61.92-1.21,1.86-1.78,2.81a16.43,16.43,0,0,0-1.53,2.79,4.32,4.32,0,0,0-.19.68c-.06-.11-.13-.22-.2-.33a12.64,12.64,0,0,1-1.19-1.79,2.32,2.32,0,0,1-.2-1.1,3.52,3.52,0,0,1,.41-1.22c.22-.42.48-.8.73-1.2s.59-.91.88-1.36l2-3c.16-.25-.2-.53-.36-.28-.59.92-1.18,1.85-1.78,2.77s-1.15,1.74-1.67,2.65a3.3,3.3,0,0,0-.54,2.45,5.27,5.27,0,0,0,1.07,1.9,5.12,5.12,0,0,1,.83,1.38,3.11,3.11,0,0,0,.3,1.28,5.4,5.4,0,0,0,.91,1.36,9.27,9.27,0,0,0,1.11,1.06,3.66,3.66,0,0,0,.15.7,7.9,7.9,0,0,0,1.1,1.91,2.73,2.73,0,0,0,1.46,1.2,2.9,2.9,0,0,0,2.05-.39,6.64,6.64,0,0,0,2-1.36,2.28,2.28,0,0,0,.43-.7.08.08,0,0,0,0-.07v-.05A1.82,1.82,0,0,0,220.13,591.3Z" fill="#ff9292"/><path d="M220.66,567.33c-1.75.32-13.77,2.55-14,2.86s-14.13,9.35-12.21,10.3,13.33-6.24,13.33-6.24h6.92l6.12-6.89Z" fill="#ffcbc7"/><path d="M214.09,574.05c-2.11.15-4.24.21-6.35.26,0,0,0,0,0-.06a4,4,0,0,0,0-.49c0-.18-.28-.17-.31,0a3.49,3.49,0,0,0,0,.44,86,86,0,0,1-10.27,5.43l-1.49.65a1.44,1.44,0,0,1-.8.19.57.57,0,0,1-.48-.41c0-.12-.21-.13-.21,0a.73.73,0,0,0,.69.74,3,3,0,0,0,1.49-.42c1-.43,2-.87,3-1.34q3-1.42,5.84-3.07c.52-.3,1-.61,1.56-.94l.77-.47c.54,0,1.08.06,1.62.07h1.67c1.12,0,2.25-.08,3.37-.15C214.4,574.44,214.35,574,214.09,574.05Z" fill="#ff9292"/><path d="M207,570.08a.09.09,0,0,0-.16,0,1.31,1.31,0,0,0-.12.68,2.16,2.16,0,0,0,0,.36v.17a.31.31,0,0,0,0,.17.08.08,0,0,0,.15,0,1,1,0,0,0,.08-.34c0-.11,0-.22,0-.33s0-.22,0-.33A.65.65,0,0,0,207,570.08Z" fill="#ff9292"/><path d="M207.62,570.34l-.08-.45a.14.14,0,0,0-.15-.11.15.15,0,0,0-.11.15l0,.45c0,.07,0,.14,0,.21s0,.1,0,.13a.14.14,0,0,0,.28,0,.57.57,0,0,0,0-.13A1.66,1.66,0,0,0,207.62,570.34Z" fill="#ff9292"/><path d="M241.07,590.54a65.43,65.43,0,0,1-12.69,1.71c-1.21,0-2.42,0-3.63.07-.09,0-.08.13,0,.14a28.44,28.44,0,0,0,3.2.11q1.62,0,3.24-.12a57,57,0,0,0,6.37-.73q1.8-.3,3.57-.72C241.41,590.93,241.36,590.48,241.07,590.54Z" fill="#ff9292"/><path d="M375.36,535.14c-.17,12.65-38.1,98.46-54.1,93.31s-80.08-37.76-80.08-37.76,2.61-12.37,4.76-12.05l12.8,1.64c18.3,2.35,49.78,6.47,50.28,7.05s12-33,24.09-55.29c5.88-10.9,11.88-19.14,16.77-19.47C364.79,511.54,375.52,522.48,375.36,535.14Z" fill="#ffca76"/><path d="M313.68,595.45c-.43,3.66-36.49-10-45.08-11.32a26.26,26.26,0,0,1-9.86-3.85c18.3,2.35,49.78,6.47,50.28,7.05s12-33,24.09-55.29C335.87,535.18,314.11,591.78,313.68,595.45Z" fill="#ffb642"/><path d="M322,554.85a31.41,31.41,0,0,0-1.41,3c-.49,1-.9,2.1-1.34,3.15-.86,2.06-1.68,4.15-2.51,6.22-1.69,4.19-3.38,8.38-5,12.6-.86,2.21-1.74,4.42-2.55,6.65a.27.27,0,0,0-.37.22.24.24,0,0,0-.07.12,1.23,1.23,0,0,0,.21.78c.13.29.27.57.4.86.27.59.51,1.18.74,1.77a35.42,35.42,0,0,1,1.18,3.75,32,32,0,0,1,.68,3.77c.07.63.14,1.27.19,1.9a12.76,12.76,0,0,0,.2,2,.2.2,0,0,0,.39,0,7.81,7.81,0,0,0,.11-2c0-.64-.07-1.28-.14-1.91a33.37,33.37,0,0,0-.72-4A32.46,32.46,0,0,0,310.8,590l-.33-.8c.19.27.37.54.54.82a34.74,34.74,0,0,1,1.9,3.43,38.69,38.69,0,0,1,1.48,3.59,34.16,34.16,0,0,0,1.28,3.73c.08.15.38.16.39,0a11.76,11.76,0,0,0-.87-3.87,34.21,34.21,0,0,0-1.55-3.71,35.89,35.89,0,0,0-2-3.47c-.36-.55-.73-1.1-1.12-1.63a10.22,10.22,0,0,0-1-1.27c1.79-4,3.42-8.13,5.08-12.21s3.38-8.39,5.06-12.58c.46-1.15.93-2.31,1.34-3.48a29.93,29.93,0,0,0,1.2-3.57A.11.11,0,0,0,322,554.85Z" fill="#ff9e00"/><path d="M358.06,580.37c-3.76,7.76-7.55,15.53-11.94,23a126.37,126.37,0,0,1-7,10.72,83.61,83.61,0,0,1-8.24,9.78,16.18,16.18,0,0,1-5.76,4,8.93,8.93,0,0,1-3.24.54,10.15,10.15,0,0,1-3.16-.72.23.23,0,0,0-.23.39,6.9,6.9,0,0,0,5.6.95,12.77,12.77,0,0,0,5.57-2.79,39,39,0,0,0,4.61-4.66q2.16-2.45,4.14-5a121.48,121.48,0,0,0,7.38-10.92c2.28-3.78,4.4-7.65,6.42-11.58s4-7.91,5.88-11.89c.23-.49.47-1,.7-1.46S358.29,579.91,358.06,580.37Z" fill="#ff9e00"/><path d="M372.44,544.78c-.79,2.09-1.49,4.22-2.26,6.32s-1.53,4.1-2.32,6.14c-1.61,4.13-3.28,8.23-5.05,12.29-.49,1.13-1,2.26-1.5,3.39l-.72,1.63c-.27.59-.46,1.21-.69,1.8a.18.18,0,0,0,.33.15c.28-.51.58-1,.84-1.51s.48-1,.72-1.55c.46-1,.9-2,1.35-3,.88-2,1.75-4,2.59-6,1.72-4.09,3.34-8.2,4.87-12.36.86-2.31,1.75-4.64,2.49-7C373.22,544.63,372.6,544.35,372.44,544.78Z" fill="#ff9e00"/><path d="M300.89,620a6.89,6.89,0,0,0-1.38-.76l-1.62-.78-3.09-1.49-6.18-3c-4.12-2-8.23-4-12.37-5.93-2.34-1.09-4.67-2.19-7.05-3.2-.27-.12-.42.27-.17.41,4,2.16,8.17,4.11,12.29,6.1l12.36,5.95,3.5,1.67,1.74.84a8.71,8.71,0,0,0,1.73.73C301,620.6,301.13,620.13,300.89,620Z" fill="#ff9e00"/><path d="M306.16,621.82a9.38,9.38,0,0,0-.93-.35l-1-.34c-.31-.11-.62-.23-.94-.33a3.48,3.48,0,0,0-1-.24.24.24,0,0,0-.18.43,3.6,3.6,0,0,0,.93.49l.93.36.92.36a9.74,9.74,0,0,0,1,.37.39.39,0,0,0,.21-.75Z" fill="#ff9e00"/><path d="M352.88,962c-.51,2.71-13,5.24-28.07,7-19.86,2.3-44.15,3.23-51.27,1.37-12.53-3.29,45.93-35.5,45.93-35.5s-4.47-20-4.68-20.73l30-8.5s3,16.31,5.37,31.48C352,948.55,353.4,959.33,352.88,962Z" fill="#271100"/><path d="M331.7,932.08a22.72,22.72,0,0,0-6.56.89,39.77,39.77,0,0,0-6.23,2.29c-4.1,1.86-8,4.2-11.88,6.46s-7.73,4.51-11.53,6.88-7.53,4.87-11.12,7.55a89.36,89.36,0,0,0-10.18,8.64c-.39.4-.77.8-1.15,1.21-.11.12.06.28.18.18,3.28-3,6.62-5.95,10.16-8.65s7.19-5.18,10.93-7.55,7.6-4.67,11.45-6.92,7.68-4.54,11.67-6.5a35.39,35.39,0,0,1,12.61-3.89c.55,0,1.1-.08,1.65-.11A.24.24,0,0,0,331.7,932.08Z" fill="#1c0a00"/><path d="M320.06,934.31c0-.12-.06-.24-.08-.36l-.19-.8c-.13-.53-.25-1.06-.38-1.59-.25-1-.5-2.1-.76-3.14-.52-2.11-1-4.21-1.55-6.32-.3-1.18-.59-2.36-.88-3.53a.26.26,0,0,0-.5.13c1,4.22,2.06,8.43,3.12,12.63.15.58.3,1.15.44,1.73l.23.86c0,.15.07.29.11.43a1.8,1.8,0,0,0,.06.22c0,.09.09.11.16.17a.12.12,0,0,0,.19,0A.55.55,0,0,0,320.06,934.31Z" fill="#1c0a00"/><path d="M352.88,962c-.51,2.71-13,5.24-28.07,7,10.3-2.2,20.91-5.64,22.11-10.57,1.24-5.14,2.41-14,3.28-21.31C352,948.55,353.4,959.33,352.88,962Z" fill="#0b0300"/><path d="M274.61,756.3q-4,7.26-8.34,14.32c-2.87,4.69-5.88,9.3-9,13.85q-1.31,1.92-2.62,3.82l-1.33,1.9a13.57,13.57,0,0,0-1.28,2,.54.54,0,0,0,.84.65,17.42,17.42,0,0,0,2.17-2.71c.15.26.35.5.48.69.38.55.75,1.12,1.11,1.69.71,1.12,1.31,2.29,1.92,3.47.23.45.66,1.52,1.35,1.12s.12-1.35-.1-1.85a23.93,23.93,0,0,0-1.94-3.46c-.41-.63-.85-1.23-1.31-1.82a4.6,4.6,0,0,0-.76-.83h0c.71-1,1.41-2,2.1-2.93q2.39-3.39,4.65-6.86c3-4.64,6-9.36,8.73-14.17q2.31-4,4.52-8.17C276.22,756.21,275,755.52,274.61,756.3Z" fill="#1a3486"/><path d="M279.88,834.27a31.75,31.75,0,0,0-2.19-4.41q-1.2-2.16-2.39-4.33-2.39-4.29-4.7-8.62-4.67-8.68-9.14-17.47-1.24-2.43-2.47-4.86l-1.25-2.47a11.8,11.8,0,0,0-.67-1.2,1.3,1.3,0,0,0-.44-.49,2,2,0,0,1-.53-.48.09.09,0,0,0-.15.08,2,2,0,0,1,.06.65,1.26,1.26,0,0,0,0,.51,10.56,10.56,0,0,0,.49,1.21c.37.74.73,1.48,1.09,2.22q1.1,2.22,2.2,4.43,2.21,4.4,4.46,8.76,4.54,8.75,9.29,17.39,1.32,2.38,2.65,4.77a34.85,34.85,0,0,0,2.95,4.72C279.44,835,280,834.65,279.88,834.27Z" fill="#1a3486"/><path d="M333.87,851.62c-.26-1.62-.59-3.22-.92-4.82q-1-4.72-2.12-9.41-2.32-9.4-5.44-18.59-.88-2.55-1.81-5.09c-.31-.87-.64-1.73-1-2.59-.24-.62-.45-1.27-.75-1.86.33-1.17.61-2.35.89-3.53.41-1.66.8-3.33,1.2-5,.78-3.31,1.52-6.63,2.25-10,1.46-6.65,3-13.27,4.57-19.9.43-1.87.87-3.73,1.3-5.59a36.86,36.86,0,0,0,1.14-5.68c0-.54-.69-.54-.86-.12a31.65,31.65,0,0,0-1.32,5c-.38,1.64-.77,3.29-1.15,4.94l-2.31,9.94c-.77,3.31-1.53,6.63-2.34,9.94s-1.63,6.6-2.38,9.92c-.42,1.84-.85,3.68-1.26,5.53s-.87,3.78-1.14,5.7a.51.51,0,0,0,.94.36l.15.41c.28.75.55,1.51.81,2.27.54,1.52,1.05,3,1.55,4.57,1,3.05,2,6.13,2.85,9.22,1.77,6.16,3.35,12.38,4.66,18.66.37,1.76.7,3.52,1,5.29a45.31,45.31,0,0,0,1.19,5.31.41.41,0,0,0,.8-.11A32.16,32.16,0,0,0,333.87,851.62Z" fill="#1a3486"/><path d="M281.4,704.67a.73.73,0,0,0-.79-.33,8.5,8.5,0,0,0-1.69.6c-.57.22-1.14.41-1.71.59a28.16,28.16,0,0,1-3.38.81c-.45.08-.91.14-1.36.2a.69.69,0,0,0-.9.09c-.37,0-.75.07-1.12.09-1.2.06-2.4,0-3.6.14a.47.47,0,0,0-.13.92,12.06,12.06,0,0,0,3.73.43c.33,0,.66,0,1,0l.09,1,.18,2.16.35,4.23q.34,4.27.71,8.54c.48,5.7.95,11.4,1.52,17.09.16,1.61.31,3.22.46,4.83s.4,3.22.59,4.83c0,.38.63.4.61,0-.07-1.44-.06-2.87-.17-4.31l-.3-4.31c-.2-2.85-.4-5.69-.62-8.54q-.63-8.58-1.34-17.16l-.39-4.76-.2-2.45c0-.43-.06-.86-.1-1.28.46-.05.91-.11,1.37-.18a24.48,24.48,0,0,0,3.58-.84c.59-.18,1.18-.39,1.76-.62a5.67,5.67,0,0,0,1.76-.91A.7.7,0,0,0,281.4,704.67Z" fill="#1a3486"/><path d="M344.25,670.13c-.36-1.32-.78-2.62-1.26-3.91-.23-.62-.48-1.24-.74-1.85a17.54,17.54,0,0,0-1-1.87c-.21-.39-.9-.12-.73.31.42,1.11.83,2.23,1.24,3.35s.76,2.22,1.08,3.35a48.42,48.42,0,0,1,1.38,6.94,46.65,46.65,0,0,1-.42,14.2c-.24,1.3-.55,2.59-.89,3.87-.17.64-.36,1.27-.55,1.91a13.22,13.22,0,0,0-.5,2c-.06.45.58.52.79.21a8.9,8.9,0,0,0,.75-1.63c.22-.58.41-1.17.59-1.77.34-1.14.63-2.3.88-3.47a47.51,47.51,0,0,0,.91-7.22A46.24,46.24,0,0,0,344.25,670.13Z" fill="#1a3486"/><path d="M340.37,709.19a58.63,58.63,0,0,0-1.37,6.86c-.4,2.3-.81,4.6-1.21,6.9q-1.19,6.84-2.33,13.68c-.22,1.28-.44,2.55-.65,3.83s-.36,2.62-.51,3.94c0,.35.52.42.6.08.27-1.16.55-2.31.78-3.48s.41-2.25.61-3.37c.42-2.3.83-4.6,1.25-6.89.81-4.55,1.63-9.1,2.43-13.65.22-1.28.45-2.55.66-3.83a38,38,0,0,0,.53-4A.4.4,0,0,0,340.37,709.19Z" fill="#1a3486"/><path d="M315.88,912.48C315,910,314,907.6,313,905.17s-2-4.87-2.93-7.31q-2.93-7.35-5.73-14.75c-1.86-4.91-3.71-9.83-5.5-14.76s-3.55-9.89-5.26-14.86-3.39-9.94-5-14.93c-.21-.64-.44-1.26-.69-1.87a.6.6,0,0,0-1.16.32c.63,2.54,1.55,5,2.38,7.5s1.68,5,2.54,7.54q2.55,7.46,5.24,14.86c1.8,5,3.63,9.91,5.53,14.84s3.83,9.83,5.81,14.73,4,9.73,6.07,14.54c.26.6.56,1.19.85,1.79C315.31,913.24,316.05,912.94,315.88,912.48Z" fill="#1a3486"/><path d="M338.52,692a4,4,0,0,0-1.49-.53c-.49-.1-1-.21-1.48-.34a30.64,30.64,0,0,1-3-.91,31,31,0,0,1-5.53-2.75,30.66,30.66,0,0,1-8.89-8.39,52.09,52.09,0,0,1-3.43-6.1c-.17-.34-.68-.1-.6.26a19.42,19.42,0,0,0,2.66,5.82,30.82,30.82,0,0,0,14.62,12.17,30.45,30.45,0,0,0,3.34,1.12c.58.15,1.16.29,1.75.4a3.86,3.86,0,0,0,1.91,0A.43.43,0,0,0,338.52,692Z" fill="#fff"/><path d="M337.94,687.73a6.81,6.81,0,0,0-2-.93c-.68-.26-1.34-.55-2-.86A33.93,33.93,0,0,1,330,683.8a32.15,32.15,0,0,1-6.68-5.74,39.31,39.31,0,0,1-3.1-3.95.33.33,0,0,0-.56.33,31.11,31.11,0,0,0,13.08,12.3c.77.39,1.56.74,2.37,1.07a5.84,5.84,0,0,0,2.46.7C338,688.48,338.27,688,337.94,687.73Z" fill="#fff"/><path d="M333.17,700.5c-.54,1.55-1.1,3.08-1.58,4.65s-.95,3.14-1.41,4.71q-1.38,4.71-2.66,9.46-2.58,9.48-4.78,19.06c-1.47,6.38-2.85,12.79-4.09,19.22s-2.45,12.82-3.23,19.28c-.1.81-.22,1.62-.32,2.43s-.08,1.73-.23,2.59c-.28,1.61-.58,3.21-.86,4.82-.57,3.18-.83,6.43-1.19,9.64-.1.81-.17,1.62-.19,2.44,0,.21.34.27.38.05.32-1.57.45-3.16.64-4.75s.44-3.24.65-4.87.35-3.24.51-4.87c.08-.81.16-1.62.25-2.43a7.77,7.77,0,0,1,.21-1.28c.12-.43.23-.84.31-1.28,1.09-6.42,2.18-12.84,3.38-19.24s2.51-12.86,4-19.25,3-12.68,4.71-19,3.57-12.6,5.42-18.89c.23-.78.4-1.59.62-2.37A.26.26,0,0,0,333.17,700.5Z" fill="#fff"/><path d="M336,902.59c-.41-3.23-1-6.45-1.53-9.66s-1.11-6.45-1.7-9.67q-1.77-9.72-3.8-19.38t-4.28-19.18c-1.51-6.4-3.15-12.78-4.85-19.14s-3.48-12.63-5.38-18.89c-.24-.79-.48-1.58-.73-2.38a.38.38,0,0,0-.74.21q2.7,9.45,5.2,19t4.8,19c1.51,6.37,3,12.76,4.35,19.16s2.65,12.83,3.85,19.27,2.31,12.89,3.36,19.36c.13.82.27,1.63.42,2.44C335,903.31,336,903.18,336,902.59Z" fill="#fff"/><path d="M216.74,608h0a1.49,1.49,0,0,1-2.1-.22L176.2,560.21a1.5,1.5,0,0,1,.23-2.1h0a1.49,1.49,0,0,1,2.09.23L217,605.9A1.5,1.5,0,0,1,216.74,608Z" fill="#181f3e"/><path d="M196.93,561.23a1,1,0,0,0-1.05.68c-.27,1.81-.26,3.68-.35,5.5a29.34,29.34,0,0,0-.1,5.46c.11.8,1.34.7,1.52,0a14.47,14.47,0,0,0,.34-2.78c.06-.86.11-1.72.17-2.58s.11-1.71.17-2.57.16-1.85.13-2.77A.94.94,0,0,0,196.93,561.23Z" fill="#fff"/><path d="M192.62,568.7c-.11-.46-.23-.91-.38-1.36l-.24-.67a3.66,3.66,0,0,0-.37-.86.89.89,0,0,0-1.62.68,3.71,3.71,0,0,0,.24.66c.09.22.17.45.24.67.15.45.28.9.39,1.36.25,1,.32,1.83.52,2.77a.79.79,0,0,0,.87.56.8.8,0,0,0,.69-.77A10.75,10.75,0,0,0,192.62,568.7Z" fill="#fff"/><path d="M203.37,567.35a.75.75,0,0,0-.81-.28,1.62,1.62,0,0,0-.46.22l-.25.22-.42.39-.83.81c-.54.55-1.09,1.08-1.65,1.61a.73.73,0,0,0,0,1,.72.72,0,0,0,1,0c.58-.49,1.15-1,1.74-1.47.29-.23.57-.46.85-.71a3.19,3.19,0,0,0,.89-.94A.77.77,0,0,0,203.37,567.35Z" fill="#fff"/><path d="M209.69,582.22a4.3,4.3,0,0,0-.94-.38l-.87-.31-1.68-.61c-1.14-.41-2.27-.85-3.44-1.16-.76-.19-1.3,1-.56,1.31,1.12.54,2.28,1,3.44,1.4l1.67.64.86.33a4.16,4.16,0,0,0,.88.3.85.85,0,0,0,1-.48A.84.84,0,0,0,209.69,582.22Z" fill="#fff"/><path d="M209.54,576.62a1.73,1.73,0,0,0-.87-.15l-.64,0a7.77,7.77,0,0,0-1.37.16.56.56,0,0,0,0,1.07,7.77,7.77,0,0,0,1.37.16l.62,0a1.81,1.81,0,0,0,.89-.16A.67.67,0,0,0,209.54,576.62Z" fill="#fff"/><path d="M267.35,605.28a4,4,0,0,1-.21,1.17c-.07.39-.14.78-.22,1.17-.15.73-.31,1.46-.46,2.19-.33,1.51-.51,3.05-.86,4.55-.05.2.26.29.31.09.37-1.5.9-2.94,1.29-4.43.19-.72.37-1.44.57-2.16l.33-1.15a4.83,4.83,0,0,1,.33-1.14C269,604.71,267.27,604.33,267.35,605.28Z" fill="#ff9e00"/><path d="M193.3,582.31c-1,.16,1,5.56,3.09,10.5.14.25.26.52.39.76.35.68.69,1.35,1,2s.53,1.28.81,1.91l.58.92c.38.61.75,1.22,1.12,1.84L203.5,594S195.09,582,193.3,582.31Z" fill="#ffcbc7"/><path d="M210.26,602.72a18,18,0,0,0-1-1.54l-1.09-1.51-2.18-3c-1.45-2-2.88-4-4.34-6a2.34,2.34,0,0,0-1.1-.94,1.06,1.06,0,0,0-1.21.36,1.53,1.53,0,0,0-.11,1.24,9.83,9.83,0,0,0,.53,1.4,34,34,0,0,0,3,5.59,28.08,28.08,0,0,0,4.56,5.41.13.13,0,0,0,.18-.19,45.1,45.1,0,0,1-3.81-4.67,33.62,33.62,0,0,1-3-5.21c-.22-.47-.42-.93-.61-1.4a5.54,5.54,0,0,1-.44-1.3c-.05-.38.07-.81.52-.83a1.4,1.4,0,0,1,1.08.72c1.4,1.87,2.75,3.79,4.12,5.68.77,1.06,1.54,2.13,2.32,3.19l1.18,1.62c.39.53.77,1.07,1.21,1.56A.16.16,0,0,0,210.26,602.72Z" fill="#ff9292"/><path d="M205.15,605.94a26.5,26.5,0,0,1-3.51-4,35,35,0,0,1-2.69-4.68c-.84-1.73-1.59-3.49-2.35-5.25q-1.29-3-2.55-6c-.24-.56-.49-1.12-.71-1.69-.16-.4-.35-1,.09-1.34s.91.11,1.18.39a3.73,3.73,0,0,0,1,1,.16.16,0,0,0,.16-.27c-.7-.52-1.06-1.56-2.05-1.6a1,1,0,0,0-.94.63,1.92,1.92,0,0,0,.13,1.39c.86,2.09,1.75,4.17,2.64,6.26a71.42,71.42,0,0,0,5.22,10.78,24.53,24.53,0,0,0,1.87,2.55c.34.4.71.78,1.08,1.15a12.84,12.84,0,0,0,1.21,1C205.11,606.27,205.27,606.05,205.15,605.94Z" fill="#ff9292"/><path d="M215.32,601.63a4.2,4.2,0,0,0-.37-.77c-.14-.26-.27-.52-.4-.79-.25-.53-.48-1.08-.68-1.64a16,16,0,0,1-.8-3.41c0-.33-.07-.65-.09-1a8.1,8.1,0,0,0-.06-1c0-.15-.28-.15-.3,0s0,0,0,0h0a11.6,11.6,0,0,1-2.61.58,11.38,11.38,0,0,1-1.31.07c-.45,0-.9,0-1.35,0a.11.11,0,0,0,0,.22,7.16,7.16,0,0,0,2.73.15,12,12,0,0,0,2.58-.53c0,.12,0,.24,0,.36,0,.29,0,.59.06.88a15.32,15.32,0,0,0,.28,1.8,16.1,16.1,0,0,0,1.14,3.39c.14.31.29.61.46.91a3.44,3.44,0,0,0,.58.83C215.2,601.83,215.36,601.75,215.32,601.63Z" fill="#ff9292"/><path d="M257.63,939.88c-9.26-.51-18.53-.53-27.81-.53H202q-27.66,0-55.33.07c-5.2,0-10.41,0-15.61.06-2.55,0-5.11,0-7.66.07a30.65,30.65,0,0,0-4,.2,15,15,0,0,1-2,.32l-2,.06a.57.57,0,0,0,0,1.14,16.75,16.75,0,0,1,3.47.25,19.13,19.13,0,0,0,3.63.3c2.27.06,4.54.06,6.81.08q6.94.06,13.9.07l27.81.07c18.45.05,36.89,0,55.34,0,10.41,0,20.82.05,31.21-.53A.83.83,0,0,0,257.63,939.88Z" fill="#fffdff"/><path d="M275.27,933.25c-7.54-.51-15.11-.39-22.66-.39H230c-15,0-30,0-45,0-4.22,0-8.45,0-12.67.05q-3.1,0-6.21.13c-1.08,0-2.16.14-3.24.17s-2.15.22-3.23.35a.5.5,0,0,0,0,1c1.89.22,3.75.42,5.66.49s3.78.12,5.67.14c3.77,0,7.55,0,11.33.06q11.32,0,22.65,0h45c8.45,0,16.92.18,25.36-.4A.84.84,0,0,0,275.27,933.25Z" fill="#fffdff"/><path d="M886.61,64.46a.56.56,0,0,1-.33-.1L860.16,46.28a.58.58,0,0,1-.22-.64.59.59,0,0,1,.53-.4c2.47-.35,67.39-25.22,92.23-34.79a.58.58,0,0,1,.7.25.57.57,0,0,1-.14.73L887,64.34A.57.57,0,0,1,886.61,64.46ZM861.8,46l24.78,17.16,63.07-50.33C932.77,19.35,871.65,42.82,861.8,46Zm-1.31-.78h0Z" fill="#fffdff"/><path d="M919.76,88.9a.61.61,0,0,1-.37-.12L894,68a.56.56,0,0,1-.21-.42.55.55,0,0,1,.17-.44l58.93-56.25a.59.59,0,0,1,.73-.06.58.58,0,0,1,.19.7l-33.48,77a.59.59,0,0,1-.39.33ZM895.17,67.54l24.36,19.87,32.06-73.72Z" fill="#fffdff"/><path d="M890.29,86.23h0a.58.58,0,0,1-.54-.49l-3.35-21.43a.57.57,0,0,1,.47-.65.58.58,0,0,1,.66.48l2.88,18.44,3.36-15.13a.56.56,0,0,1,.68-.43.57.57,0,0,1,.44.68l-4,18.08A.58.58,0,0,1,890.29,86.23Z" fill="#fffdff"/><path d="M890.63,86.56a.58.58,0,0,1-.48-.25.57.57,0,0,1,.16-.8l14.44-9.64a.57.57,0,0,1,.63.95l-14.44,9.64A.54.54,0,0,1,890.63,86.56Z" fill="#fffdff"/><g opacity="0.45"><path d="M537.07,75.8a53,53,0,1,1,53-53A53,53,0,0,1,537.07,75.8Zm0-104.19a51.22,51.22,0,1,0,51.21,51.21A51.27,51.27,0,0,0,537.07-28.39Z" fill="#fffdff"/><path d="M537.07,82.18a59.36,59.36,0,1,1,59.35-59.36A59.42,59.42,0,0,1,537.07,82.18Zm0-117.83a58.48,58.48,0,1,0,58.47,58.47A58.55,58.55,0,0,0,537.07-35.65Z" fill="#fffdff"/><path d="M562.57,39.09a.87.87,0,0,1-.32-.06l-30-11.65V-2.24a.87.87,0,0,1,.88-.87.87.87,0,0,1,.88.87V26.18l28.89,11.21a.88.88,0,0,1-.31,1.7Z" fill="#fffdff"/></g><g opacity="0.45"><path d="M142.72,203a69.9,69.9,0,1,1,69.9-69.9A70,70,0,0,1,142.72,203Zm0-137.48A67.58,67.58,0,1,0,210.3,133.1,67.65,67.65,0,0,0,142.72,65.52Z" fill="#fffdff"/><path d="M142.72,211.41A78.31,78.31,0,1,1,221,133.1,78.4,78.4,0,0,1,142.72,211.41Zm0-155.46a77.15,77.15,0,1,0,77.16,77.15A77.24,77.24,0,0,0,142.72,56Z" fill="#fffdff"/><path d="M176.37,154.56a1,1,0,0,1-.42-.08l-39.61-15.37V100a1.16,1.16,0,1,1,2.32,0v37.49l38.13,14.8a1.16,1.16,0,0,1-.42,2.24Z" fill="#fffdff"/></g><path d="M247.21,163.55c-.94-2.28-2.16-4.46-3.26-6.66s-2.13-4.29-3.22-6.41a2.06,2.06,0,0,0-3.19-.41l-4.12,3.52a35.52,35.52,0,0,0-4,3.62,1.73,1.73,0,0,0-.44,1.65s.14.62.33.74l.46.28a1.71,1.71,0,0,0,1.71,0,21.23,21.23,0,0,0,3.07-2.23,79.6,79.6,0,0,1-3.64,12.79,74.81,74.81,0,0,1-8.08,15.13A77.78,77.78,0,0,1,198,208.68a71.42,71.42,0,0,1-8.49,4.23c-3.06,1.26-6.21,2.28-9.19,3.72a.85.85,0,0,0,.42,1.57,27.9,27.9,0,0,0,8.66-2.07,75.5,75.5,0,0,0,8.24-3.76A79.18,79.18,0,0,0,233,173.69a62.93,62.93,0,0,0,5.15-19l.08-.06q1,2.1,2,4.2c1,2.09,1.92,4.3,3.08,6.31A2.12,2.12,0,0,0,246,166,2.09,2.09,0,0,0,247.21,163.55Z" fill="#fffdff" opacity="0.53"/><path d="M596,73.53c0-1.88,0-3.79-.1-5.67a1.56,1.56,0,0,0-1.94-1.48c-2,.64-4.14,1.07-6.2,1.58s-4.31.8-5.92,2.11a.71.71,0,0,0,.31,1.18,7.63,7.63,0,0,0,3.12-.06c1.07-.18,2.14-.4,3.21-.62l.75-.16c-1,1-1.9,2.08-2.91,3.07a82.62,82.62,0,0,1-6.48,5.77,76.66,76.66,0,0,1-14.37,9,75.6,75.6,0,0,1-36,7.31,77.75,77.75,0,0,1-10.65-1.15c-3.61-.67-7.18-1.54-10.77-2.33-.49-.11-.85.6-.36.84,6,3,12.74,4.26,19.33,4.94a74.88,74.88,0,0,0,19.89-.75,75.36,75.36,0,0,0,33-14.41,75.89,75.89,0,0,0,7.55-6.55A42.67,42.67,0,0,0,592.77,70c0,1.16,0,2.33,0,3.49,0,.93,0,1.85,0,2.78s.16,2.29,1.07,2.87a1.06,1.06,0,0,0,1.1,0c.91-.6,1-1.86,1-2.87S596,74.46,596,73.53Z" fill="#fffdff" opacity="0.53"/><path d="M337.5,168.25a.79.79,0,0,1-.44-.14l-35-24.22a.77.77,0,0,1-.29-.86.76.76,0,0,1,.7-.54c3.31-.46,90.29-33.78,123.57-46.6a.77.77,0,0,1,.94.33.78.78,0,0,1-.19,1L338,168.08A.78.78,0,0,1,337.5,168.25Zm-33.24-24.71,33.21,23L422,99.1C399.35,107.8,317.46,139.25,304.26,143.54Zm-1.76-1h0Z" fill="#fffdff"/><path d="M381.91,201a.72.72,0,0,1-.48-.18L347.33,173a.76.76,0,0,1-.28-.56.78.78,0,0,1,.24-.59L426.24,96.5a.78.78,0,0,1,1-.08.76.76,0,0,1,.26.94L382.61,200.54a.77.77,0,0,1-.52.44ZM349,172.37,381.61,199l42.95-98.78Z" fill="#fffdff"/><path d="M342.43,197.41h0a.76.76,0,0,1-.73-.65l-4.49-28.71a.76.76,0,0,1,1.51-.24l3.86,24.71,4.51-20.27a.77.77,0,0,1,.91-.58.75.75,0,0,1,.58.91l-5.38,24.23A.77.77,0,0,1,342.43,197.41Z" fill="#fffdff"/><path d="M342.88,197.86a.78.78,0,0,1-.64-.34.78.78,0,0,1,.22-1.07l19.34-12.91a.76.76,0,1,1,.85,1.27l-19.34,12.92A.75.75,0,0,1,342.88,197.86Z" fill="#fffdff"/><path d="M163.86,540.13a62.07,62.07,0,0,1-6.55-.38l.18-1.61a61.38,61.38,0,0,0,6.38.38Zm6.54-.28-.15-1.62a62.64,62.64,0,0,0,6.33-.91l.31,1.59C174.74,539.33,172.56,539.64,170.4,539.85Zm-19.56-1.17a61.68,61.68,0,0,1-6.31-1.77l.51-1.53a62.61,62.61,0,0,0,6.15,1.72Zm32.41-1.32-.46-1.55c2-.6,4.07-1.3,6.05-2.09l.6,1.51C187.41,536,185.33,536.75,183.25,537.36Zm-44.82-2.85c-2-.9-3.93-1.92-5.82-3l.81-1.4A63.54,63.54,0,0,0,139.1,533Zm57-2-.73-1.44c1.9-1,3.77-2,5.57-3.16l.86,1.37C199.26,530.46,197.35,531.55,195.4,532.53Zm-68.29-4.6c-1.76-1.27-3.49-2.64-5.12-4.08l1.07-1.22a63.79,63.79,0,0,0,5,4Zm79.36-2.37-1-1.28c1.69-1.3,3.33-2.69,4.88-4.13l1.1,1.18C209.89,522.81,208.21,524.23,206.47,525.56Zm-89.18-6.27c-1.49-1.6-2.91-3.28-4.23-5l1.29-1c1.28,1.68,2.67,3.32,4.12,4.88Zm98.76-2.65-1.21-1.07c1.23-1.4,2.42-2.86,3.51-4.35l1.31,1C218.53,513.71,217.32,515.21,216.05,516.64Zm-106.69-7.77a63.08,63.08,0,0,1-3.12-5.77l1.46-.69a62.26,62.26,0,0,0,3,5.62ZM103.77,497c-.46-1.33-.87-2.69-1.23-4-.2-.75-.38-1.52-.55-2.28l1.58-.35q.25,1.13.54,2.22c.34,1.31.74,2.63,1.19,3.92ZM101,484.23c-.19-2-.3-4-.3-6,0-.2,0-.4,0-.6l1.62,0c0,.19,0,.38,0,.57,0,1.95.1,3.9.29,5.8Zm1.73-12.92-1.61-.18a62.44,62.44,0,0,1,1.1-6.47l1.58.36C103.3,467.1,102.94,469.21,102.69,471.31Zm2.79-12.45-1.54-.51a65.43,65.43,0,0,1,2.4-6.1l1.48.67A60.5,60.5,0,0,0,105.48,458.86Zm5.28-11.61-1.4-.82A61.72,61.72,0,0,1,113,441l1.3,1A58.38,58.38,0,0,0,110.76,447.25ZM118.37,437l-1.18-1.11A57.89,57.89,0,0,1,122,431.4l1,1.24A54.49,54.49,0,0,0,118.37,437Zm9.73-8.2-.88-1.35a60.28,60.28,0,0,1,5.66-3.3l.74,1.44A63.21,63.21,0,0,0,128.1,428.83ZM139.44,423l-.6-1.51c1.94-.78,4-1.52,6.15-2.19l.49,1.55C143.38,421.47,141.35,422.2,139.44,423Zm12.23-3.88-.39-1.57c2-.49,4.11-.95,6.37-1.39l.3,1.59C155.72,418.15,153.67,418.6,151.67,419.09Zm12.64-2.48-.26-1.59c2-.31,4.08-.62,6.43-.93l.22,1.6C168.35,416,166.26,416.31,164.31,416.61Zm12.8-1.74-.2-1.6,2.47-.3,4-.49.2,1.61-4,.48ZM190,413.23l-.23-1.6c2.26-.33,4.34-.66,6.37-1l.28,1.59C194.35,412.56,192.25,412.9,190,413.23Zm12.81-2.3-.35-1.58c2.16-.48,4.26-1,6.24-1.55l.43,1.56C207.1,409.92,205,410.45,202.78,410.93Zm12.55-3.52-.54-1.53c2.07-.73,4.08-1.53,6-2.36l.66,1.47C219.49,405.85,217.44,406.66,215.33,407.41ZM227.25,402l-.8-1.4a55.34,55.34,0,0,0,5.36-3.46l1,1.31A57.9,57.9,0,0,1,227.25,402Zm10.57-7.75-1.11-1.18c.88-.84,1.75-1.72,2.56-2.63.6-.65,1.18-1.34,1.74-2l1.27,1c-.58.73-1.19,1.45-1.8,2.13C239.63,392.5,238.74,393.42,237.82,394.29ZM246,384l-1.41-.81a43.68,43.68,0,0,0,2.78-5.71l1.51.6A48.34,48.34,0,0,1,246,384Zm4.92-12.17-1.57-.4a48.81,48.81,0,0,0,1.17-6.25l1.6.19A50.33,50.33,0,0,1,250.9,371.82Zm-50.56-.51c-.75,0-1.51,0-2.27-.09l.12-1.61a28.52,28.52,0,0,0,6.28-.22l.24,1.6A30,30,0,0,1,200.34,371.31Zm-8.79-1.23a36,36,0,0,1-6.18-2.37l.71-1.45a34.64,34.64,0,0,0,5.9,2.26Zm19.57-.68-.52-1.53a38,38,0,0,0,5.79-2.55l.78,1.42A39.87,39.87,0,0,1,211.12,369.4Zm-31.4-5.15a33.06,33.06,0,0,1-4.89-4.46l1.2-1.08a32.07,32.07,0,0,0,4.66,4.25Zm43-1.07-1-1.3a49,49,0,0,0,4.81-4.16l1.14,1.15A51.38,51.38,0,0,1,222.7,363.18Zm28.13-4.37a47.68,47.68,0,0,0-.49-6.34l1.6-.24a49.44,49.44,0,0,1,.51,6.56ZM171,354.38a24.94,24.94,0,0,1-2.45-6.2l1.57-.38a24.14,24.14,0,0,0,2.29,5.8Zm61.08-.41-1.26-1a57.87,57.87,0,0,0,3.68-5.21l1.37.86A59.22,59.22,0,0,1,232.05,354ZM249,346.26a44.08,44.08,0,0,0-2.22-5.95l1.47-.68a45.14,45.14,0,0,1,2.3,6.17ZM239,342.88l-1.46-.71a60.8,60.8,0,0,0,2.52-5.88l1.52.56A62.8,62.8,0,0,1,239,342.88Zm-69.55-1.27-1.62-.07c0-.51.07-1,.12-1.54a25.45,25.45,0,0,1,1.11-5l1.54.51a23,23,0,0,0-1,4.69C169.54,340.66,169.5,341.14,169.48,341.61Zm74.2-6.85a43.39,43.39,0,0,0-3.88-5l1.2-1.08c.37.41.74.83,1.09,1.26.51-1.93,1-3.94,1.34-6l1.59.3c-.41,2.18-.89,4.32-1.44,6.37l-1.18-.32c.94,1.16,1.82,2.36,2.63,3.58Zm-70.36-4.92L172,329a31,31,0,0,1,4.15-5.17l1.15,1.14A29.6,29.6,0,0,0,173.32,329.84Zm61.91-4.53a47.8,47.8,0,0,0-5.12-3.76l.87-1.37a49.77,49.77,0,0,1,5.3,3.89Zm-53.13-4.43-.92-1.33a38.8,38.8,0,0,1,5.72-3.29l.69,1.46A38,38,0,0,0,182.1,320.88Zm42.43-2.39a49.3,49.3,0,0,0-5.94-2.31l.49-1.54a50.76,50.76,0,0,1,6.13,2.38Zm21.48-.7-1.6-.2c.24-2,.44-4.2.59-6.4l1.62.11C246.47,313.53,246.26,315.71,246,317.79Zm-52.49-2.29-.44-1.56c1-.29,2.1-.55,3.15-.75s2.21-.39,3.33-.51l.18,1.6c-1.07.13-2.15.29-3.21.5S194.52,315.22,193.52,315.5Zm18.89-.82a45.14,45.14,0,0,0-6.32-.65l0-1.62a48.47,48.47,0,0,1,6.55.67Zm34.5-9.89-1.62,0c0-1.47.05-3,.05-4.62,0-.61,0-1.22,0-1.82l1.62,0c0,.62,0,1.23,0,1.84C247,301.73,246.94,303.3,246.91,304.79Zm-1.7-12.94c-.06-1.89-.13-4-.24-6.46l1.62-.07c.1,2.52.18,4.58.23,6.48Zm-.52-12.93c-.09-2.15-.18-4.31-.25-6.48l1.62-.05c.07,2.16.16,4.32.25,6.46Zm-.4-13c0-.95,0-1.9,0-2.86,0-1.21,0-2.42,0-3.63l1.62,0c0,1.21,0,2.41,0,3.61,0,1,0,1.9,0,2.84Zm1.88-12.9-1.62-.1c.13-2.23.31-4.42.54-6.49l1.61.18C246.48,248.68,246.3,250.84,246.17,253.05Zm1.43-12.77L246,240c.38-2.19.84-4.34,1.35-6.39l1.57.39C248.42,236,248,238.13,247.6,240.28Zm3.14-12.42-1.53-.52c.3-.88.62-1.75.95-2.6.45-1.17.94-2.35,1.47-3.49l1.47.67c-.51,1.12-1,2.26-1.43,3.4C251.34,226.15,251,227,250.74,227.86Zm5.3-11.61-1.4-.82a64.26,64.26,0,0,1,3.56-5.49l1.31.94C258.27,212.62,257.1,214.42,256,216.25Zm7.44-10.39-1.22-1.06c1.42-1.63,2.94-3.23,4.52-4.74l1.12,1.17C266.36,202.71,264.87,204.27,263.48,205.86Zm9.23-8.85-1-1.26c1.7-1.36,3.47-2.66,5.28-3.86l.9,1.34C276.11,194.41,274.37,195.68,272.71,197Zm10.65-7.08-.77-1.42c1.91-1,3.89-2,5.88-2.87l.64,1.49C287.17,188,285.24,188.91,283.36,189.93Zm11.74-5.07-.51-1.54c2.08-.68,4.2-1.27,6.31-1.75l.36,1.58C299.2,183.62,297.13,184.19,295.1,184.86Zm12.46-2.81-.2-1.6a62.57,62.57,0,0,1,6.53-.49l0,1.62C311.82,181.63,309.68,181.79,307.56,182.05Z" fill="#fffdff"/><path d="M611.64,134.58a33.64,33.64,0,0,1-1-4.23l1.41-.22a32.8,32.8,0,0,0,.92,4Zm0-10-1.43,0a38.27,38.27,0,0,1,.54-5.8l1.4.24A36.64,36.64,0,0,0,611.68,124.56ZM806,122.91l0-1.42c.86,0,1.72-.08,2.56-.17,1-.11,2-.27,3-.47l.29,1.4c-1,.21-2.08.38-3.12.49C807.79,122.83,806.89,122.89,806,122.91Zm-5.81-.28a44.45,44.45,0,0,1-5.7-1.07l.35-1.38a45.59,45.59,0,0,0,5.52,1Zm17.18-2.12-.55-1.32a27.69,27.69,0,0,0,4.89-2.65l.81,1.18A29.63,29.63,0,0,1,817.37,120.51ZM789,119.85c-1.74-.63-3.54-1.38-5.33-2.21l.6-1.3c1.76.82,3.51,1.55,5.22,2.17ZM778.49,115c-1.56-.84-3.19-1.78-5-2.86l.73-1.22c1.78,1.07,3.4,2,4.93,2.83ZM827,113.89l-1.06-1a21.55,21.55,0,0,0,1.56-1.9c-.64.09-1.28.17-1.89.23l-.14-1.43c1-.09,2-.23,3.09-.41.2-.33.38-.66.55-1l1.24.64.67-.14.31,1.39q-.94.21-1.89.39A22.47,22.47,0,0,1,827,113.89Zm-213.42-.35-1.36-.44a45.48,45.48,0,0,1,2.15-5.39l1.29.61A44.31,44.31,0,0,0,613.54,113.54Zm206.19-2.23a24.44,24.44,0,0,1-5.75-1.19l.46-1.35a22.57,22.57,0,0,0,5.41,1.11Zm-51.1-2.14-2.11-1.32-2.73-1.72.75-1.21,2.75,1.72,2.1,1.32Zm68.24-.38-.44-1.36c1.78-.57,3.56-1.23,5.3-2l.55,1.32C840.51,107.53,838.69,108.2,836.87,108.79Zm-28.12-1.43a17.67,17.67,0,0,1-4.09-4.29l1.19-.8a16.16,16.16,0,0,0,3.76,4Zm38.76-3-.66-1.26c1.66-.87,3.31-1.82,4.9-2.83l.76,1.21C850.89,102.48,849.21,103.45,847.51,104.33Zm-15.28-.86-1.41-.24a18.41,18.41,0,0,0,.28-3.24,18.86,18.86,0,0,0-.13-2.25l1.42-.16a21.64,21.64,0,0,1,.14,2.41A20.1,20.1,0,0,1,832.23,103.47Zm-213.88-.07-1.21-.76a51.42,51.42,0,0,1,3.39-4.71l1.11.9A49.75,49.75,0,0,0,618.35,103.4Zm140.58-.24c-1.63-1-3.29-1.91-4.95-2.82l.69-1.25c1.67.91,3.35,1.87,5,2.84Zm98.32-5L856.39,97c1.5-1.14,3-2.35,4.36-3.6l1,1.06C860.28,95.76,858.78,97,857.25,98.16ZM749,97.69c-1.69-.85-3.41-1.69-5.12-2.49l.6-1.29c1.73.8,3.47,1.64,5.16,2.5Zm53.44-.14a12.59,12.59,0,0,1-.2-2.2c0-.23,0-.46,0-.69a11.45,11.45,0,0,1,.62-3.11l1.35.48a9.59,9.59,0,0,0-.54,2.71c0,.2,0,.41,0,.61a11.67,11.67,0,0,0,.17,2Zm-177-2.89-1-1a50.79,50.79,0,0,1,4.35-3.82l.88,1.13A51.26,51.26,0,0,0,625.43,94.66Zm113.2-1.77c-1.74-.74-3.51-1.47-5.27-2.15l.52-1.33c1.77.69,3.56,1.42,5.31,2.16Zm90.93-.45a16.32,16.32,0,0,0-2.94-4.59l1-1a17.77,17.77,0,0,1,3.2,5Zm36.27-2-1.05-1c1.29-1.38,2.53-2.82,3.68-4.29l1.12.88C868.41,87.55,867.14,89,865.83,90.43ZM728,88.76c-1.78-.63-3.59-1.24-5.4-1.82l.44-1.36c1.81.58,3.64,1.2,5.44,1.83Zm-93.73-1-.74-1.22c.5-.31,1-.61,1.53-.89,1.16-.65,2.36-1.27,3.57-1.84l.61,1.3c-1.18.55-2.36,1.16-3.49,1.78C635.28,87.16,634.78,87.45,634.29,87.75Zm172.83-.16-1-1a16.19,16.19,0,0,1,5-3.18l.53,1.33A14.8,14.8,0,0,0,807.12,87.59Zm-90-2.29c-1.81-.52-3.66-1-5.49-1.48l.35-1.38c1.84.46,3.71,1,5.54,1.48Zm105.1-.63a12.21,12.21,0,0,0-5.07-1H817l0-1.43h.21a13.54,13.54,0,0,1,5.66,1.18Zm-177.8-1.74L644,81.58c1.77-.64,3.62-1.22,5.5-1.73l.37,1.38C648,81.72,646.21,82.3,644.47,82.93Zm61.67-.42c-1.85-.4-3.72-.79-5.58-1.14l.26-1.4c1.88.35,3.77.74,5.62,1.15ZM695,80.4c-1.13-.18-2.27-.35-3.4-.51-.75-.11-1.49-.21-2.24-.3l.18-1.42,2.25.3c1.15.16,2.29.33,3.43.51ZM655.38,80l-.26-1.4c1.84-.35,3.76-.64,5.7-.87l.16,1.42C659.08,79.34,657.19,79.63,655.38,80Zm28.28-1c-1.92-.17-3.83-.3-5.67-.38l.06-1.43c1.87.08,3.8.22,5.73.39Zm-17-.35-.08-1.43c1.87-.1,3.81-.16,5.75-.16v1.43C670.39,78.47,668.48,78.52,666.63,78.63Z" fill="#fffdff"/><path d="M92.7,916.21A26.21,26.21,0,0,0,88,912.6a42.54,42.54,0,0,0-5.17-2.84,38.64,38.64,0,0,0-11.26-3.33,32.2,32.2,0,0,0-11.16.45,30.87,30.87,0,0,0-9.85,4A25.85,25.85,0,0,0,43,918.19c-.25.37-.48.74-.71,1.12a.23.23,0,0,0,.4.24A27,27,0,0,1,50,912.21a30.07,30.07,0,0,1,9.46-4.28,31.29,31.29,0,0,1,10.69-.84,37.12,37.12,0,0,1,11.11,2.85,41.66,41.66,0,0,1,5.15,2.64c.83.49,1.64,1,2.44,1.56s1.55,1.15,2.33,1.7c.4.28.79.58,1.19.85S92.94,916.46,92.7,916.21Z" fill="#fffdff"/><path d="M274.91,918.67a29.54,29.54,0,0,0-11.86-7.8,41.3,41.3,0,0,0-25.4-.91,35.55,35.55,0,0,0,7.32-8.84c3-5.41,4-12.43,1.12-18.11s-9.4-8.38-15.51-8.36c-7.17,0-14,3.38-20.05,6.92.16-.29.31-.58.46-.88a21.23,21.23,0,0,0,2.19-11.61,17.84,17.84,0,0,0-3.31-8.4,24.52,24.52,0,0,0-15.66-9.31,28.32,28.32,0,0,0-19.49,4.24,45,45,0,0,0-10.17,8.69,29.86,29.86,0,0,0,1.07-5.07,18.09,18.09,0,0,0-3-12.75c-2.46-3.42-6.31-5.88-10.65-5.55-4.6.36-8.53,3.39-10.95,7.19a20.85,20.85,0,0,0-1.76,3.5c-.06-.59-.14-1.18-.23-1.77a19,19,0,0,1,1.64-6c1.71-3.53,4.81-6.45,8.81-7,4.5-.58,8.92,1.58,12.7,3.77,3.46,2,7.22,4.31,9,8,1.37,2.87,1.09,6.8-1.34,9a5.14,5.14,0,0,1-1,.7c-.23.13,0,.45.2.35,3.25-1.51,4.09-5.63,3.27-8.84-1-4.09-4.76-6.86-8.17-9-3.9-2.42-8.28-4.88-13-5a11.26,11.26,0,0,0-6.25,1.68,13.45,13.45,0,0,0-4.17,4.29,17.68,17.68,0,0,0-2.21,5.55c-1.74-7.12-6.51-14-13.22-17.09-.48-.22-1-.42-1.45-.59a19.21,19.21,0,0,0-7.08-2.74,17.7,17.7,0,0,0-9.74.95A16.46,16.46,0,0,0,99.4,835a32.35,32.35,0,0,0-3.81,10.1A33.6,33.6,0,0,0,95,855.64a23.59,23.59,0,0,0,2.71,8.82,21.46,21.46,0,0,0-6.15-1.06,25.15,25.15,0,0,0-6.75.64,26.25,26.25,0,0,0-11.94,6.43,22.83,22.83,0,0,0-6.61,11.76,26.21,26.21,0,0,0,4.81,21.11c.16.37.33.74.52,1.1a21.13,21.13,0,0,0,3.91,5.44,47.31,47.31,0,0,0-6.78-1.06,44.2,44.2,0,0,0-11.54.58,22.84,22.84,0,0,0-9.94,4A13.77,13.77,0,0,0,42,922a16.78,16.78,0,0,0,0,5.7H279.65A19.54,19.54,0,0,0,274.91,918.67ZM69.48,894.47a26.56,26.56,0,0,0,3.32,8.65,28.88,28.88,0,0,0,2.73,3.79A26.2,26.2,0,0,1,71.72,903,30,30,0,0,1,69.48,894.47ZM77,910.26a20.21,20.21,0,0,1-3.89-4.6c.48.47,1,.93,1.5,1.35s.9.63,1.36.93a.24.24,0,0,0,.33-.11,29.84,29.84,0,0,0,3.48,3.26C78.89,910.78,78,910.5,77,910.26Zm6.41-43.39a25.67,25.67,0,0,0-13.3,15.63,23.84,23.84,0,0,0-1,4.82,25.52,25.52,0,0,1,2.71-11.8A19.14,19.14,0,0,1,82.14,867a21.48,21.48,0,0,1,3.29-.92A21.11,21.11,0,0,0,83.44,866.87ZM93.59,865c-.57,0-1.14-.05-1.7,0l-.23,0a25.57,25.57,0,0,0-8.17.91,20.62,20.62,0,0,0-11.31,7.84c-3,4.33-3.73,9.77-3.75,14.92A39.94,39.94,0,0,0,70,900.43a23.89,23.89,0,0,1-1.67-3.36A25.69,25.69,0,0,1,66.65,884a22.25,22.25,0,0,1,5.57-11.86,25.34,25.34,0,0,1,11.16-7,24.09,24.09,0,0,1,13.2-.49c.49.13,1,.27,1.46.42.07.12.13.24.2.35s.28.4.42.6A23,23,0,0,0,93.59,865Zm20.23-35.75a19.26,19.26,0,0,0-9.36,5.68,27.12,27.12,0,0,0-6.78,22,39.2,39.2,0,0,0,2.66,9.69l-.84-.32c-3.68-5.38-4.61-12.15-3.65-18.54a36.66,36.66,0,0,1,2.92-9.94,17.92,17.92,0,0,1,6.61-8c4.5-2.76,10.24-2.78,15.09-.83A17,17,0,0,0,113.82,829.21Z" fill="#fffdff"/><path d="M169,849a15.15,15.15,0,0,0-4.71-6.12,15.4,15.4,0,0,0-24.41,7.87,13.65,13.65,0,0,0-.36,1.8c0,.3.41.44.47.13a15.66,15.66,0,0,1,8.57-11.08,14.89,14.89,0,0,1,14.06,1,14.31,14.31,0,0,1,5.05,5.37,16.49,16.49,0,0,1,1.88,7.38,24.36,24.36,0,0,1-5,14.91c-3.35,4.6-7.81,8.16-12.25,11.64-.55.43-1.1.86-1.64,1.3-.22.18.07.55.31.4a67.8,67.8,0,0,0,7.08-5.32,45.85,45.85,0,0,0,6.19-6.27,29.32,29.32,0,0,0,4.36-7.24,23.67,23.67,0,0,0,1.73-8A18.34,18.34,0,0,0,169,849Z" fill="#fffdff"/><path d="M239.81,875.31a16,16,0,0,0-8-1.95,33,33,0,0,0-8.1,1,35,35,0,0,0-11.34,5c.35-.5.69-1,1-1.54a17.83,17.83,0,0,0,2.59-9.07,16.32,16.32,0,0,0-2.6-8.51c-3.47-5.52-9.52-8.65-15.84-9.65a35.14,35.14,0,0,0-18.2,2.12,36.39,36.39,0,0,0-14.62,10.45,17.06,17.06,0,0,0-1.28,1.75c-.15.23.2.51.38.29.95-1.11,1.89-2.24,2.92-3.29A35.11,35.11,0,0,1,170,859a36.9,36.9,0,0,1,7.51-4.62,35.15,35.15,0,0,1,17.29-3.23c6.21.46,12.49,2.82,16.52,7.74a16.56,16.56,0,0,1,3.62,7.85,15.56,15.56,0,0,1-1.34,8.81,23.46,23.46,0,0,1-4.18,6.15l0,0c-.5.45-1,.91-1.45,1.38a.24.24,0,0,0-.06.15,67.71,67.71,0,0,1-7.8,6c-.69.48-1.38,1-2.06,1.45a.25.25,0,0,0,.25.43,61.3,61.3,0,0,0,8.6-5.83,32.21,32.21,0,0,0,4.08-4,37.13,37.13,0,0,1,11-5.62,34.28,34.28,0,0,1,7.71-1.44,18.9,18.9,0,0,1,8,.9c5,1.85,7.67,6.92,8,12a25.82,25.82,0,0,1-1.15,8.86,39.41,39.41,0,0,1-2.87,7.15,40.54,40.54,0,0,1-9.47,11.95l-1.44,1.23c-.32.27.1.83.45.58a33.84,33.84,0,0,0,5.8-5.42,41.57,41.57,0,0,0,4.57-6.45,40,40,0,0,0,3.25-7.26,29.75,29.75,0,0,0,1.67-8.81C246.51,883.7,244.5,878.09,239.81,875.31Z" fill="#fffdff"/><path d="M957.24,990.39c-10.87-.74-21.76-.68-32.66-.68H876.07c14-.86,28-2.56,41.52-6.24,11.64-3.16,27.58-10.8,27.47-25-.13-15.91-19.34-22.71-32-25.68a93.6,93.6,0,0,0-27.33-2.23,44.34,44.34,0,0,0,5.41-2.41,28.28,28.28,0,0,0,9.89-8.37,19.19,19.19,0,0,0,3.8-11.82,17.76,17.76,0,0,0-4.27-10.45c-5-6.06-12.68-9.28-20.28-10.75-1.57-.42-3.16-.75-4.74-1a66.52,66.52,0,0,0-26.21,1.07,8325,8325,0,0,1-17,5.27,37.05,37.05,0,0,0,5.12-9.38c4.38-7.85,6.17-17.28,3.63-26a23,23,0,0,0-7-11.22,27,27,0,0,0-14.52-5.79,50.28,50.28,0,0,0-15.67.84,59.51,59.51,0,0,0-14.17,4.8A58.83,58.83,0,0,0,768,863q1.25-2.93,2.33-5.91a84.31,84.31,0,0,0,5.07-24.71c.37-8.57-.86-17.73-5.72-25-3.93-5.88-9.9-10.25-16.88-11.27A19.51,19.51,0,0,0,738,793.52c-5.57,1.2-10.6,4.32-14.91,8a52.74,52.74,0,0,0-10.25,11.84,71.2,71.2,0,0,0-10.34,30.57c-1.46,13.16-.07,26.53,2.33,39.51,0,.12,0,.23.07.35,0,1,0,1.89.11,2.84q-1.1-2-2.31-3.85a57.53,57.53,0,0,0-8.06-10,32.43,32.43,0,0,0-6.15-7.06,17.74,17.74,0,0,0-11.05-4.37,19.45,19.45,0,0,0-11,3.46,22,22,0,0,0-7.72,9.21,30,30,0,0,0-2.48,13c.19,8.37,3.26,16.18,7,23.57a43.24,43.24,0,0,0-9.94-5.57c-8.48-3.28-18.28-2.79-25.32,3.36a17.67,17.67,0,0,0-5.92,10.25,19.75,19.75,0,0,0,2.68,13,41.06,41.06,0,0,0,8.79,10.25c1.55,1.37,3.16,2.67,4.81,3.92A43.14,43.14,0,0,0,631.9,943c-6.64-2.21-15.26-2.71-20.75,2.46a11.91,11.91,0,0,0-3.37,10.51,18.49,18.49,0,0,0,6,10.59,47.43,47.43,0,0,0,10.36,7.09c1.27.67,2.57,1.28,3.89,1.87a57.52,57.52,0,0,0,14.52,9.85A72.69,72.69,0,0,0,655,989.91l-13.74.08c-6.07,0-12.25-.31-18.22.82a.8.8,0,0,0,0,1.53c5.34,1,10.79.76,16.22.8s10.66.08,16,.1l22.13.09c5.34.31,10.7.36,16,.3q7.57-.09,15.15-.22l44.7,0q65.34,0,130.68,0h36.67c12.23,0,24.46.15,36.66-.68A1.19,1.19,0,0,0,957.24,990.39ZM618.05,968c-3.17-2.3-6.17-5.17-7.73-8.83-1.5-3.51-1.65-7.73.53-11a12.41,12.41,0,0,1,7.87-4.82,19.05,19.05,0,0,1,4-.42,12.27,12.27,0,0,0-7.37,5.06A14.52,14.52,0,0,0,614,959.61a22.49,22.49,0,0,0,6.4,10C619.57,969.06,618.8,968.55,618.05,968Zm17.57-21.44c-3.45-1.51-7.49-2.56-11.18-1.25a10.52,10.52,0,0,0-6.75,7.33c-1.5,6,1.25,11.84,4.8,16.63a25.34,25.34,0,0,1-5.15-6,14.81,14.81,0,0,1-2-11.1,10.43,10.43,0,0,1,7-7.48c6-2,11.85.41,16.85,3.82A28.85,28.85,0,0,0,635.62,946.56Zm261.19-50.85a19,19,0,0,1,6.09,9,16,16,0,0,1-1.32,11.51c-4,8.06-12.48,12.06-20.67,14.7l-.23.08c-.76.09-1.53.17-2.3.28l1.35-.82a57,57,0,0,0,8.87-3.65,27.86,27.86,0,0,0,8.75-6.74,17.06,17.06,0,0,0,3.93-10.41,20.42,20.42,0,0,0-3.62-11.62,23.72,23.72,0,0,0-4.85-5.23A28.22,28.22,0,0,1,896.81,895.71Zm-23.65-8.35c1.07.06,2.15.15,3.23.28,6.54,1.21,13,3.69,17.63,8.51,5.31,5.52,7.65,14.09,3.62,21-3,5.12-8.35,8.18-13.74,10.55.43-.31.86-.62,1.28-.94,4.37-3.35,8.53-7.73,9.76-13.28,2.52-11.37-7.49-19.4-17-22.85a55.56,55.56,0,0,0-14.63-3A62.76,62.76,0,0,1,873.16,887.36Zm-86.35-38.92a57.12,57.12,0,0,1,28.12-7.5c5.18,0,10.51,1,15,3.6a20.51,20.51,0,0,1,8.53,9.79,30,30,0,0,1,.69,20.09,27.17,27.17,0,0,0-.34-6.9c-2-10.92-11.49-19.06-21.84-22-11.81-3.29-24.42.44-34.41,7a75.34,75.34,0,0,0-15.87,14.38l-.73.87A60.59,60.59,0,0,1,786.81,848.44Zm-82,27.66a141.77,141.77,0,0,1-1.41-26.67c.59-10.87,3.07-21.67,8.24-31.3,4.86-9.08,12.33-17.5,21.93-21.66,4.94-2.14,10.56-2.81,15.63-.68l.12.06c-7.9.1-15.37,4.16-20.78,9.73-5.79,6-9.71,13.57-12.95,21.16a131.9,131.9,0,0,0-7.88,24.84A137.76,137.76,0,0,0,704.83,876.1ZM658,890.59c-.9-8.14.81-17.11,7.15-22.79a19.09,19.09,0,0,1,9.83-4.72,15.08,15.08,0,0,1,10.62,2.51,21.39,21.39,0,0,1,2.95,2.41,19.19,19.19,0,0,0-12.95-2.76c-5.29.83-9.68,4.53-12.25,9.11-3,5.3-3.48,11.53-2.73,17.46a77.36,77.36,0,0,0,6.15,21.5c-.5-.43-1-.85-1.51-1.26C661.91,905.24,658.83,898.15,658,890.59Zm-11.06,62.69,0-.06-1.6-1.45c1,.72,2.08,1.45,3.1,2.19C647.89,953.75,647.4,953.52,646.93,953.28ZM652,955c-1.07-.88-2.16-1.74-3.27-2.57,1.72.93,3.47,1.79,5.25,2.6A8.21,8.21,0,0,1,652,955Z" fill="#ffcb4c"/><path d="M714.24,869a53.43,53.43,0,0,1,.44-6.57c.14-1.1.32-2.21.54-3.3a6.45,6.45,0,0,0,.24-3.25,1.21,1.21,0,0,0-2-.53,5.61,5.61,0,0,0-1.25,3.19c-.2,1.06-.37,2.13-.51,3.19a53.56,53.56,0,0,0-.46,7.27c0,4.45.29,9.72,2.4,13.72a1,1,0,0,0,1.75-.47c0-2.17-.51-4.3-.76-6.45A57.3,57.3,0,0,1,714.24,869Z" fill="#ffb642"/><path d="M718.53,837.91a1.3,1.3,0,0,0-1.74.46,15.89,15.89,0,0,0-1.71,4.78,11.34,11.34,0,0,0-.15,5.18c.26.93,1.8,1,2,0,.28-1.5.26-3,.59-4.51a21.29,21.29,0,0,1,1.48-4.17A1.32,1.32,0,0,0,718.53,837.91Z" fill="#ffb642"/><path d="M723.73,850.39a.75.75,0,0,0-1.26-.33,4,4,0,0,0-.81,1.37c-.17.52-.3,1.05-.45,1.57-.27,1-.51,2-.75,3-.49,2-1,4.09-1.46,6.13a.94.94,0,0,0,1.82.5c.58-2,1.17-4,1.75-6.05.28-1,.56-1.95.8-2.93.13-.53.27-1.06.38-1.59A4.21,4.21,0,0,0,723.73,850.39Z" fill="#ffb642"/><path d="M670,901.58a40.68,40.68,0,0,1-1.25-5.54,41.28,41.28,0,0,1-.45-5.67,58.33,58.33,0,0,1,0-6.06c.08-1-1.55-1.22-1.78-.24a32,32,0,0,0-1.07,6.3,38.78,38.78,0,0,0,.34,6.28,41.48,41.48,0,0,0,1.29,6.15c.55,1.89,1.28,4.06,3,5.21.56.38,1.14-.14,1.21-.69C671.48,905.4,670.52,903.38,670,901.58Z" fill="#ffb642"/><path d="M680.24,918.38a3.65,3.65,0,0,0-.31-1.07l-.44-.82c-.31-.58-.62-1.15-1-1.71l-2.15-3.34a.92.92,0,0,0-1.24-.32.91.91,0,0,0-.33,1.24l2,3.47c.34.58.71,1.11,1.1,1.66.19.27.37.54.57.81a3.91,3.91,0,0,0,.86.76C679.83,919.41,680.32,918.83,680.24,918.38Z" fill="#ffb642"/><path d="M642.65,937.85c-.16-1-1.36-1.62-2.12-2.19a20.76,20.76,0,0,1-2.13-1.85,23.08,23.08,0,0,1-3.62-4.61A25.1,25.1,0,0,1,631.16,918a1,1,0,0,0-2.06,0,23.43,23.43,0,0,0,3.16,12.64,25.83,25.83,0,0,0,3.94,5.13,24.13,24.13,0,0,0,2.58,2.26c.84.65,2,1.56,3.07,1.2A1.18,1.18,0,0,0,642.65,937.85Z" fill="#ffb642"/><path d="M653.41,943.63a3.36,3.36,0,0,0-.62-1,34.3,34.3,0,0,0-2.62-2.77l-3-3.09a1,1,0,1,0-1.45,1.44l2.5,2.87c.82.94,1.61,1.91,2.47,2.81.56.59,1.38,1.43,2.25,1A1.08,1.08,0,0,0,653.41,943.63Z" fill="#ffb642"/><path d="M639.91,965.44a19.23,19.23,0,0,0-3.24-2.79c-1.11-.9-2.2-1.85-3.23-2.85a42.39,42.39,0,0,1-5.54-6.51c-.7-1-2.36-.1-1.69,1a40.85,40.85,0,0,0,5.56,7.19,38.59,38.59,0,0,0,3.35,3,11,11,0,0,0,4,2.36A.85.85,0,0,0,639.91,965.44Z" fill="#ffb642"/><path d="M793.08,854.37c-2.17-1.13-5.5.6-7.57,1.46a42.52,42.52,0,0,0-7.35,3.93c-4.43,3-8.89,6.84-11.51,11.54a1.32,1.32,0,0,0,.79,1.93,2.32,2.32,0,0,0,1.17,0c.57.24,1.19-.41.7-.91l0,0c3.3-3.63,6.53-7.09,10.7-9.79A43.35,43.35,0,0,1,786.6,859c1.18-.5,2.38-.91,3.6-1.32s2.47-.72,3.26-1.83A1.07,1.07,0,0,0,793.08,854.37Z" fill="#ffb642"/><path d="M805.08,851.88a1.3,1.3,0,0,0-1.22-.86,5.1,5.1,0,0,0-1.14.22c-.69.16-1.35.37-2,.57l-3.89,1.2a1.18,1.18,0,0,0,.62,2.28l3.94-1c.68-.18,1.35-.35,2-.57a6.71,6.71,0,0,0,1.08-.42A1.31,1.31,0,0,0,805.08,851.88Z" fill="#ffb642"/><path d="M798.12,859.55a4.13,4.13,0,0,0-1.35.24c-.37.13-.74.28-1.1.43a18.68,18.68,0,0,0-2.36,1.2q-2.22,1.23-4.45,2.45a1.17,1.17,0,0,0,1.18,2l4.52-2.33c1.48-.77,3.18-1.56,4.17-2.95A.71.71,0,0,0,798.12,859.55Z" fill="#ffb642"/><path d="M578.34,880.45H531.25a17.44,17.44,0,0,0-3,.27H513.86a17.66,17.66,0,0,0,0,35.31H561a17.35,17.35,0,0,0,3-.27h14.35a17.66,17.66,0,0,0,0-35.31Z" fill="#ffa400" opacity="0.38"/><path d="M578.87,913.09H531.79a15,15,0,0,1-15-15h0a15,15,0,0,1,15-15h47.08a15,15,0,0,1,15,15h0A15,15,0,0,1,578.87,913.09Z" fill="#ffa200"/><path d="M575.52,898.24a15.13,15.13,0,0,1-4.41,10.68,14.86,14.86,0,0,1-10.58,4.44H513.45a15.13,15.13,0,0,1-10.58-25.79,14.86,14.86,0,0,1,10.58-4.44h47.08A15.1,15.1,0,0,1,575.52,898.24Z" fill="#ffb52d"/><path d="M520.36,893.49h1.4l3.86,6.71,1.15,2.2h.07c-.07-1.07-.17-2.27-.17-3.39v-5.52H528v10.67h-1.41l-3.86-6.71-1.15-2.21h-.06c.07,1.08.17,2.22.17,3.33v5.59h-1.29Z" fill="#2c2c2c"/><path d="M530.87,893.49H537v1.15h-4.79V898h4v1.15h-4V903h4.95v1.15h-6.31Z" fill="#2c2c2c"/><path d="M541.33,898.65l-2.91-5.16h1.5l1.46,2.73.82,1.55h.07c.29-.62.5-1.06.75-1.55l1.42-2.73h1.43l-2.9,5.22,3.1,5.45h-1.49L543,901.29c-.28-.54-.57-1.07-.91-1.72H542c-.31.65-.58,1.18-.85,1.72l-1.54,2.87h-1.43Z" fill="#2c2c2c"/><path d="M549.66,894.64h-3.23v-1.15h7.82v1.15H551v9.52h-1.36Z" fill="#2c2c2c"/><path d="M560.77,884.33c-1.5-.08-3,0-4.54.06l-4.6.09c-3,0-6,.09-9.08.12-6.07.07-12.14.09-18.22.1-1.69,0-3.38,0-5.07,0-.86,0-1.73,0-2.6.06a6.83,6.83,0,0,0-2.58.47.48.48,0,0,0,0,.83,6.14,6.14,0,0,0,2.25.49c.75.06,1.51.07,2.26.1,1.54,0,3.07.08,4.61.09,3,0,6,0,9.08,0q9.11,0,18.21-.14l5.08-.08,2.6-.05c.87,0,1.74,0,2.6-.09a1.07,1.07,0,0,0,1.06-1.06A1.09,1.09,0,0,0,560.77,884.33Z" fill="#fff" opacity="0.23"/></g></g></svg>