<svg id="visual" viewBox="0 0 1080 1920" width="1080" height="1920" xmlns="http://www.w3.org/2000/svg" xmlns:xlink="http://www.w3.org/1999/xlink" version="1.1"><rect x="0" y="0" width="1080" height="1920" fill="#ffffff"></rect><path d="M0 391L30 418.7C60 446.3 120 501.7 180 490C240 478.3 300 399.7 360 411.3C420 423 480 525 540 530.3C600 535.7 660 444.3 720 429.2C780 414 840 475 900 479.2C960 483.3 1020 430.7 1050 404.3L1080 378L1080 0L1050 0C1020 0 960 0 900 0C840 0 780 0 720 0C660 0 600 0 540 0C480 0 420 0 360 0C300 0 240 0 180 0C120 0 60 0 30 0L0 0Z" fill="#80E4C4" stroke-linecap="round" stroke-linejoin="miter"></path></svg>